
<svg width="31px" height="31px" viewBox="952 540 31 31" version="1.1" xmlns="http://www.w3.org/2000/svg" xmlns:xlink="http://www.w3.org/1999/xlink">
    <!-- Generator: Sketch 42 (36781) - http://www.bohemiancoding.com/sketch -->
    <desc>Created with Sketch.</desc>
    <defs></defs>
    <g id="balloons" stroke="none" stroke-width="1" fill="none" fill-rule="evenodd" transform="translate(952.000000, 540.000000)">
        <g id="Group" fill-rule="nonzero" fill="#000000">
            <path d="M11.8104,3.32034335 C12.1992,3.43042918 12.56715,3.57128755 12.904125,3.73905579 C12.993,3.78328326 13.09005,3.80433476 13.185825,3.80433476 C13.379775,3.80433476 13.56855,3.71806867 13.67295,3.56369099 C13.8288,3.33302575 13.7373,3.03759657 13.468575,2.90375536 C13.064475,2.70257511 12.625125,2.53422747 12.162675,2.40328326 C11.867775,2.31984979 11.549625,2.45729614 11.452275,2.71055794 C11.355075,2.96381974 11.515425,3.23684549 11.8104,3.32034335 Z" id="Shape"></path>
            <path d="M15.6243,8.48909871 C15.6243,9.20935622 15.526875,9.9455794 15.334725,10.6771674 C15.2664,10.9373176 15.456675,11.1957296 15.75975,11.2543777 C15.801375,11.2624249 15.843,11.2662876 15.88395,11.2662876 C16.141125,11.2662876 16.37325,11.1139056 16.4322,10.8895494 C16.64265,10.0883691 16.749375,9.28075107 16.749375,8.48909871 C16.749375,6.80304721 16.269975,5.39858369 15.324525,4.31491416 C15.138375,4.10150215 14.785725,4.05798283 14.5371,4.21783262 C14.288475,4.3776824 14.237775,4.68032189 14.424,4.89373391 C15.220425,5.80667382 15.6243,7.01633047 15.6243,8.48909871 L15.6243,8.48909871 Z" id="Shape"></path>
            <path d="M7.50105,15.861824 C6.103125,15.0433906 4.853175,13.4738627 4.157325,11.6634979 C4.059975,11.4102361 3.74175,11.2727253 3.44685,11.3562876 C3.1518,11.4398498 2.9916,11.7128755 3.08895,11.9661373 C3.871125,14.0010515 5.248275,15.7117597 6.86715,16.6596567 C6.964125,16.7164378 7.07445,16.7436695 7.183575,16.7436695 C7.363275,16.7436695 7.5399,16.6698927 7.6488,16.532897 C7.823775,16.3124678 7.7577,16.0120815 7.50105,15.861824 L7.50105,15.861824 Z" id="Shape"></path>
            <path d="M27.14325,7.88536481 C25.4307,6.45366953 23.031225,5.66523605 20.3868,5.66523605 C19.82895,5.66523605 19.277475,5.70077253 18.7413,5.76991416 C18.294825,4.37864807 17.48715,3.17645923 16.34325,2.22012876 C14.6307,0.788433476 12.231225,0 9.5868,0 C6.942375,0 4.5429,0.788433476 2.83035,2.22012876 C0.994575,3.75482833 0.024225,5.92261803 0.024225,8.48909871 C0.024225,11.102897 1.022175,13.8235622 2.76225,15.9534979 C4.2456,17.7693348 6.075825,18.9377253 8.030325,19.344721 C7.899,19.5563305 7.824225,19.7975536 7.824225,20.0535837 L7.824225,21.0836266 C7.824225,21.350279 8.076075,21.5664592 8.386725,21.5664592 L8.99085,21.5664592 C8.945025,21.8634335 8.85705,22.0648069 8.760075,22.2867811 C8.60265,22.6469099 8.424225,23.0551931 8.424225,23.8291416 C8.424225,24.6035408 8.602575,25.0119528 8.76,25.3723391 C8.901825,25.6969313 9.024225,25.9772318 9.024225,26.576588 C9.024225,27.1759442 8.901825,27.4562446 8.76,27.7808369 C8.602575,28.1412232 8.424225,28.5496352 8.424225,29.3240343 C8.424225,29.5906867 8.676075,29.806867 8.986725,29.806867 C9.297375,29.806867 9.549225,29.5906867 9.549225,29.3240343 C9.549225,28.7247425 9.671625,28.4444421 9.813375,28.1198498 C9.9708,27.7594635 10.149225,27.3510515 10.149225,26.5766524 C10.149225,25.8022532 9.9708,25.3937768 9.813375,25.0334549 C9.671625,24.7088627 9.549225,24.4285622 9.549225,23.8292704 C9.549225,23.2304936 9.671625,22.9503863 9.813375,22.6261159 C9.934275,22.349485 10.06725,22.0438197 10.1226,21.566588 L10.786725,21.566588 C11.097375,21.566588 11.349225,21.3504077 11.349225,21.0837554 L11.349225,20.0537124 C11.349225,19.7976824 11.27445,19.5564592 11.143125,19.3448498 C11.426775,19.2858155 11.7078,19.2107511 11.9856,19.1199142 C13.46355,22.2395279 16.02615,24.4109227 18.832425,25.0065451 C18.69975,25.2189914 18.624225,25.4615021 18.624225,25.7190129 L18.624225,26.7490558 C18.624225,27.0157082 18.876075,27.2318884 19.186725,27.2318884 L19.79085,27.2318884 C19.745025,27.5288627 19.65705,27.7302361 19.560075,27.9522103 C19.40265,28.3123391 19.224225,28.7206223 19.224225,29.4945708 C19.224225,29.7612232 19.476075,29.9774034 19.786725,29.9774034 C20.097375,29.9774034 20.349225,29.7612232 20.349225,29.4945708 C20.349225,28.895794 20.471625,28.6156867 20.613375,28.2914163 C20.734275,28.0147854 20.86725,27.7091202 20.9226,27.2318884 L21.586725,27.2318884 C21.897375,27.2318884 22.149225,27.0157082 22.149225,26.7490558 L22.149225,25.7190129 C22.149225,25.4629828 22.07445,25.2217597 21.943125,25.0101502 C23.897625,24.6031545 25.72785,23.4346996 27.2112,21.618927 C28.9512,19.4889914 29.94915,16.7683262 29.94915,14.1545279 C29.9493,11.5878541 28.97895,9.42006438 27.14325,7.88536481 L27.14325,7.88536481 Z M3.6834,15.3990773 C2.072925,13.4277039 1.1493,10.9091202 1.1493,8.48909871 C1.1493,6.18914163 2.00205,4.2605794 3.6153,2.91193133 C5.116575,1.65682403 7.237275,0.965665236 9.5868,0.965665236 C11.936325,0.965665236 14.0571,1.65682403 15.5583,2.91186695 C17.17155,4.2605794 18.0243,6.18914163 18.0243,8.48903433 C18.0243,10.9091202 17.100675,13.4277039 15.4902,15.3990129 C13.8351,17.4250429 11.738625,18.5407725 9.5868,18.5407725 C7.434975,18.5407725 5.338425,17.4250429 3.6834,15.3990773 L3.6834,15.3990773 Z M10.2243,20.0536481 L10.2243,20.6008584 L8.9493,20.6008584 L8.9493,20.0536481 C8.9493,19.7519099 9.235275,19.5064378 9.5868,19.5064378 C9.938325,19.5064378 10.2243,19.7519099 10.2243,20.0536481 Z M21.0243,25.7188841 L21.0243,26.2660944 L19.7493,26.2660944 L19.7493,25.7188841 C19.7493,25.4171459 20.035275,25.1716738 20.3868,25.1716738 C20.738325,25.1716738 21.0243,25.4171459 21.0243,25.7188841 Z M26.2902,21.0643133 C24.6351,23.090279 22.538625,24.2060086 20.3868,24.2060086 C18.87015,24.2060086 17.352375,23.6386481 15.997575,22.5653433 C14.780025,21.6007725 13.725825,20.2390558 13.006275,18.7087339 C13.372575,18.5322103 13.731225,18.3273605 14.08035,18.0948927 C14.88495,19.9246996 16.172775,21.4498712 17.66715,22.3247639 C17.764125,22.3815451 17.87445,22.4087768 17.983575,22.4087768 C18.163275,22.4087768 18.3399,22.335 18.4488,22.1980043 C18.62385,21.9777039 18.5577,21.6773176 18.30105,21.5270601 C16.923825,20.7207296 15.6906,19.1852575 14.988975,17.4087554 C15.4902,16.9836052 15.966525,16.4980043 16.41135,15.9534979 C18.15135,13.8235622 19.1493,11.102897 19.1493,8.48909871 C19.1493,7.87358369 19.0929,7.28137339 18.982725,6.71491416 C19.44015,6.65909871 19.910625,6.63090129 20.3868,6.63090129 C22.736325,6.63090129 24.8571,7.32206009 26.3583,8.577103 C27.97155,9.92581545 28.8243,11.8543777 28.8243,14.1542704 C28.8243,16.5744206 27.900675,19.0930043 26.2902,21.0643133 L26.2902,21.0643133 Z" id="Shape"></path>
            <path d="M26.12445,9.98008584 C25.9383,9.76667382 25.58565,9.72315451 25.337025,9.88300429 C25.0884,10.0428541 25.0377,10.3454936 25.223925,10.5589056 C26.020425,11.4718455 26.4243,12.6815021 26.4243,14.1542704 C26.4243,14.8745279 26.326875,15.6107511 26.134725,16.3423391 C26.0664,16.6024893 26.256675,16.8609013 26.55975,16.9195494 C26.601375,16.9275966 26.643,16.9314592 26.68395,16.9314592 C26.941125,16.9314592 27.17325,16.7790773 27.2322,16.554721 C27.44265,15.7535408 27.549375,14.9459227 27.549375,14.1542704 C27.5493,12.4682189 27.0699,11.0638197 26.12445,9.98008584 L26.12445,9.98008584 Z" id="Shape"></path>
            <path d="M24.26865,8.56899142 C23.86455,8.36781116 23.4252,8.19946352 22.96275,8.06851931 C22.667775,7.98508584 22.3497,8.12253219 22.25235,8.37579399 C22.155075,8.62905579 22.31535,8.90201717 22.610325,8.9855794 C22.999125,9.09566524 23.367075,9.23652361 23.70405,9.40429185 C23.792925,9.44851931 23.889975,9.46957082 23.98575,9.46957082 C24.1797,9.46957082 24.368475,9.38330472 24.472875,9.22892704 C24.628875,8.9982618 24.537375,8.70283262 24.26865,8.56899142 L24.26865,8.56899142 Z" id="Shape"></path>
        </g>
    </g>
</svg>
