
<svg width="30px" height="30px" viewBox="377 -66 30 30" version="1.1" xmlns="http://www.w3.org/2000/svg" xmlns:xlink="http://www.w3.org/1999/xlink">
    <!-- Generator: Sketch 42 (36781) - http://www.bohemiancoding.com/sketch -->
    <desc>Created with Sketch.</desc>
    <defs></defs>
    <g id="beer" stroke="none" stroke-width="1" fill="none" fill-rule="evenodd" transform="translate(377.000000, -66.000000)">
        <g id="Group" fill-rule="nonzero" fill="#000000">
            <path d="M24.7432639,10.2557234 L22.5688889,10.2557234 L22.5688889,10.0961489 C22.5688889,9.83176596 22.3357639,9.61742553 22.0480556,9.61742553 C21.7603472,9.61742553 21.5272222,9.83176596 21.5272222,10.0961489 L21.5272222,20.8793617 C21.5272222,21.1437447 21.7603472,21.3580851 22.0480556,21.3580851 C22.3357639,21.3580851 22.5688889,21.1437447 22.5688889,20.8793617 L22.5688889,20.7197872 L24.7432639,20.7197872 C26.0738194,20.7197872 27.1563194,19.7248085 27.1563194,18.5018298 L27.1563194,12.4736809 C27.1563194,11.2507021 26.0738194,10.2557234 24.7432639,10.2557234 L24.7432639,10.2557234 Z M26.1146528,18.5018298 C26.1146528,19.1968723 25.4994444,19.7623404 24.7432639,19.7623404 L22.5688889,19.7623404 L22.5688889,11.2131702 L24.7432639,11.2131702 C25.4994444,11.2131702 26.1146528,11.7786383 26.1146528,12.4736809 L26.1146528,18.5018298 Z" id="Shape"></path>
            <path d="M24.7432639,7.70253191 L22.5688889,7.70253191 L22.5688889,5.56180851 C22.5688889,5.29742553 22.3357639,5.08308511 22.0480556,5.08308511 L21.8029167,5.08308511 C21.54625,3.24523404 19.8345833,1.81991489 17.7663889,1.81991489 C17.3995833,1.81991489 17.0381944,1.8647234 16.6876389,1.95338298 C15.5353472,0.707680851 13.8772917,4.53537916e-16 12.0828472,4.53537916e-16 C10.2884028,4.53537916e-16 8.63034722,0.707680851 7.47791667,1.95344681 C7.12743056,1.86478723 6.76597222,1.81997872 6.39916667,1.81997872 C4.33097222,1.81997872 2.61930556,3.24523404 2.36263889,5.08314894 L2.11756944,5.08314894 C1.82993056,5.08314894 1.59673611,5.29748936 1.59673611,5.56187234 L1.59673611,25.1004255 C0.667916667,25.5400851 0.0659027778,26.4282128 0.0659027778,27.4066596 C0.0659027778,28.8366383 1.33159722,30 2.88736111,30 L21.2782639,30 C22.8340278,30 24.0997917,28.8366383 24.0997917,27.4066596 C24.0997917,26.4282128 23.4977778,25.5400851 22.5689583,25.1004255 L22.5689583,23.2729787 L24.7433333,23.2729787 C27.6055556,23.2729787 29.9341667,21.1326383 29.9341667,18.5018298 L29.9341667,12.4736809 C29.9340972,9.84287234 27.6054861,7.70253191 24.7432639,7.70253191 Z M6.39916667,2.77742553 C6.76847222,2.77742553 7.13020833,2.83838298 7.47444444,2.95857447 C7.69125,3.0342766 7.93645833,2.96910638 8.07576389,2.79868085 C9.0325,1.62855319 10.4930556,0.957446809 12.0828472,0.957446809 C13.6726389,0.957446809 15.1331944,1.62855319 16.0899306,2.79861702 C16.2292361,2.96904255 16.4743056,3.0342766 16.6911806,2.95851064 C17.0354167,2.83831915 17.3972222,2.7773617 17.7664583,2.7773617 C19.2591667,2.7773617 20.5022917,3.77514894 20.7500694,5.08308511 L3.41555556,5.08308511 C3.66333333,3.77521277 4.90645833,2.77742553 6.39916667,2.77742553 L6.39916667,2.77742553 Z M28.8924306,18.5018298 C28.8924306,20.6047021 27.0311111,22.3155319 24.7432639,22.3155319 L22.0480556,22.3155319 C21.7603472,22.3155319 21.5272222,22.5298723 21.5272222,22.7942553 L21.5272222,25.4137021 C21.5272222,25.6163617 21.6660417,25.797 21.87375,25.8648511 C22.5820833,26.0960426 23.0580556,26.7156383 23.0580556,27.4066596 C23.0580556,28.3087021 22.2596528,29.0425532 21.2781944,29.0425532 L2.88736111,29.0425532 C1.90597222,29.0425532 1.10756944,28.3086383 1.10756944,27.4066596 C1.10756944,26.7156383 1.58347222,26.0960426 2.291875,25.8648511 C2.49965278,25.797 2.63840278,25.6163617 2.63840278,25.4137021 L2.63840278,6.04053191 L21.5272917,6.04053191 L21.5272917,8.18125532 C21.5272917,8.4456383 21.7604167,8.65997872 22.048125,8.65997872 L24.7433333,8.65997872 C27.0311806,8.65997872 28.8925,10.3708085 28.8925,12.4736809 L28.8925,18.5018298 L28.8924306,18.5018298 Z" id="Shape"></path>
            <path d="M13.7147917,24.9349787 L6.28423611,24.9349787 C5.42263889,24.9349787 4.72173611,24.2907447 4.72173611,23.4988085 L4.72173611,16.4791277 C4.72173611,16.2147447 4.48854167,16.0004043 4.20090278,16.0004043 C3.91326389,16.0004043 3.68006944,16.2147447 3.68006944,16.4791277 L3.68006944,23.4988085 C3.68006944,24.8186809 4.84826389,25.8924255 6.28423611,25.8924255 L13.7147917,25.8924255 C14.0024306,25.8924255 14.235625,25.6780851 14.235625,25.4137021 C14.235625,25.1493191 14.0024306,24.9349787 13.7147917,24.9349787 Z" id="Shape"></path>
            <ellipse id="Oval" cx="17.360625" cy="18.3310851" rx="0.520833333" ry="0.478723404"></ellipse>
            <ellipse id="Oval" cx="17.360625" cy="20.2459787" rx="0.520833333" ry="0.478723404"></ellipse>
            <path d="M19.9647917,6.99797872 C19.6770833,6.99797872 19.4439583,7.21231915 19.4439583,7.47670213 L19.4439583,12.170617 L4.72173611,12.170617 L4.72173611,7.47670213 C4.72173611,7.21231915 4.48854167,6.99797872 4.20090278,6.99797872 C3.91326389,6.99797872 3.68006944,7.21231915 3.68006944,7.47670213 L3.68006944,14.564234 C3.68006944,14.828617 3.91326389,15.0429574 4.20090278,15.0429574 C4.48854167,15.0429574 4.72173611,14.828617 4.72173611,14.564234 L4.72173611,13.1280638 L19.4439583,13.1280638 L19.4439583,23.4988085 C19.4439583,24.2907447 18.7429861,24.9349787 17.8814583,24.9349787 L15.798125,24.9349787 C15.5104861,24.9349787 15.2772917,25.1493191 15.2772917,25.4137021 C15.2772917,25.6780851 15.5104861,25.8924255 15.798125,25.8924255 L17.8814583,25.8924255 C19.3174306,25.8924255 20.485625,24.8186809 20.485625,23.4988085 L20.485625,7.47670213 C20.485625,7.21231915 20.2524306,6.99797872 19.9647917,6.99797872 L19.9647917,6.99797872 Z" id="Shape"></path>
        </g>
    </g>
</svg>
