
<svg width="30px" height="30px" viewBox="461 -81 30 30" version="1.1" xmlns="http://www.w3.org/2000/svg" xmlns:xlink="http://www.w3.org/1999/xlink">
    <!-- Generator: Sketch 42 (36781) - http://www.bohemiancoding.com/sketch -->
    <desc>Created with Sketch.</desc>
    <defs></defs>
    <g id="clown" stroke="none" stroke-width="1" fill="none" fill-rule="evenodd" transform="translate(461.000000, -81.000000)">
        <g id="Group" fill-rule="nonzero" fill="#000000">
            <path d="M29.8908649,29.3150318 C29.0714595,27.2721019 27.5448649,25.4052229 25.5274054,23.9520382 C25.5074595,23.9356688 25.4862162,23.9201911 25.4631892,23.906051 C25.0967838,23.6450955 24.7147297,23.3974522 24.3176757,23.1650955 C21.6091622,21.5797452 18.3871622,20.7418471 15.0000811,20.7418471 C11.613,20.7418471 8.391,21.5797452 5.68248649,23.1650955 C5.286,23.3971975 4.90443243,23.6443949 4.53843243,23.9050318 C4.51451351,23.9196178 4.49245946,23.9356688 4.47186486,23.9526752 C2.45481081,25.4057962 0.928540541,27.2724204 0.109216216,29.3150955 C0.00827027027,29.5667516 0.186162162,29.8349682 0.506432432,29.9142675 C0.826621622,29.9935669 1.16821622,29.8538217 1.26916216,29.6022293 C1.968,27.8597452 3.15924324,26.3284076 4.70051351,25.0887261 C4.74559459,25.1566879 4.79254054,25.223949 4.84127027,25.2903185 C5.87286486,26.6940127 7.67610811,27.6544586 9.70256757,27.8907006 C10.9763514,29.1512102 12.9368108,29.8977707 15,29.8977707 C17.0631892,29.8977707 19.0236486,29.1512739 20.2973514,27.8907643 C20.9337568,27.816879 21.5521622,27.6719108 22.139027,27.4589809 C22.4438919,27.3483439 22.5768649,27.0645223 22.436027,26.8249682 C22.2951892,26.585414 21.9340541,26.4810828 21.6289459,26.5916561 C21.0813243,26.7903822 20.5005405,26.9168153 19.9027297,26.9673885 C19.7324595,26.9818471 19.5778378,27.0519108 19.4768919,27.1605732 C18.4392973,28.276242 16.7657027,28.9423567 15,28.9423567 C13.2342973,28.9423567 11.5607027,28.276242 10.5231892,27.1605732 C10.4221622,27.0519108 10.2675405,26.9817834 10.0971892,26.9673885 C8.34851351,26.8194904 6.77740541,26.0138854 5.89459459,24.8126752 C5.79713514,24.6800637 5.70972973,24.5432484 5.63059459,24.4040764 C5.95102703,24.1885987 6.28354054,23.984586 6.62675676,23.792293 C6.71310811,23.9789172 6.81948649,24.1603822 6.94783784,24.3349682 C7.79910811,25.4932484 9.41197297,26.1396815 11.075027,26.0233758 C11.7788108,27.2126115 13.2975405,27.9869427 14.9999189,27.9869427 C16.7022973,27.9869427 18.2211081,27.2126115 18.9248108,26.0233758 C20.5872973,26.1395541 22.2008108,25.4931847 23.052,24.3349682 C23.1803514,24.1603822 23.2867297,23.9789172 23.3730811,23.792293 C23.7162973,23.984586 24.0488108,24.1885987 24.3692432,24.4041401 C24.2901892,24.5433121 24.2027027,24.6801911 24.1052432,24.8126752 C23.9048919,25.0852866 23.6665135,25.341465 23.3966757,25.5740127 C23.1705405,25.7690446 23.1883784,26.0712102 23.4365676,26.2489172 C23.5531622,26.3323567 23.6997568,26.3735032 23.846027,26.3735032 C24.0111081,26.3735032 24.1756216,26.3210191 24.2957027,26.2175796 C24.6243243,25.9343312 24.9145946,25.6223567 25.1585676,25.2903822 C25.2073784,25.2240127 25.2543243,25.1566879 25.2994054,25.0887261 C26.8406757,26.3284076 28.0318378,27.8598089 28.7306757,29.6022293 C28.8124865,29.8061146 29.0521622,29.9364968 29.3104865,29.9364968 C29.370973,29.9364968 29.4325946,29.9293631 29.4934054,29.9142675 C29.8139189,29.8349045 29.9918108,29.5666879 29.8908649,29.3150318 Z M21.9989189,23.8571975 C21.3239189,24.7756051 19.9829189,25.2459873 18.6622703,25.0283439 C18.3587838,24.9783439 18.0558649,25.1156051 17.9594595,25.3471338 C17.5392973,26.354586 16.35,27.031465 15.0000811,27.031465 C13.6501622,27.031465 12.4608649,26.354586 12.0407027,25.3471338 C11.9442162,25.1156051 11.6412973,24.9783439 11.3378919,25.0283439 C10.0166757,25.2465605 8.67624324,24.7755414 8.00124324,23.8571975 C7.86048649,23.6656051 7.75532432,23.4630573 7.68518919,23.2527389 C9.84454054,22.2558599 12.3520541,21.6972611 15.0001622,21.6972611 C17.6482703,21.6972611 20.1557027,22.2558599 22.3151351,23.2527389 C22.2449189,23.4629936 22.1397568,23.6655414 21.9989189,23.8571975 Z" id="Shape"></path>
            <path d="M10.3971892,10.9388535 L11.0751892,10.9388535 C11.1327568,11.1556051 11.3774595,11.318535 11.6704865,11.318535 C12.0064054,11.318535 12.2785946,11.1047134 12.2785946,10.840828 L12.2785946,10.4611465 C12.2785946,10.1972611 12.0064054,9.98343949 11.6704865,9.98343949 L10.3971892,9.98343949 C10.0612703,9.98343949 9.78908108,10.1972611 9.78908108,10.4611465 C9.78908108,10.7250318 10.0612703,10.9388535 10.3971892,10.9388535 Z" id="Shape"></path>
            <path d="M18.9236757,11.318535 C19.2167027,11.318535 19.4614054,11.1556051 19.518973,10.9388535 L20.1970541,10.9388535 C20.532973,10.9388535 20.8051622,10.7250318 20.8051622,10.4611465 C20.8051622,10.1972611 20.532973,9.98343949 20.1970541,9.98343949 L18.9236757,9.98343949 C18.5877568,9.98343949 18.3155676,10.1972611 18.3155676,10.4611465 L18.3155676,10.840828 C18.3155676,11.1047134 18.5877568,11.318535 18.9236757,11.318535 Z" id="Shape"></path>
            <path d="M20.2803243,12.2544586 C19.9483784,12.2187261 19.6405946,12.4008917 19.5946216,12.6622293 C19.2996486,14.3374522 17.4521351,15.6007006 15.2970811,15.6007006 C13.142027,15.6007006 11.2945135,14.3374522 10.9995405,12.6622293 C10.9534865,12.400828 10.6452973,12.2187898 10.3138378,12.2544586 C9.98108108,12.2906369 9.7487027,12.5317834 9.79475676,12.793121 C10.1725135,14.9384076 12.5380541,16.5561146 15.2970811,16.5561146 C18.0561081,16.5561146 20.4216486,14.9384076 20.7994054,12.793121 C20.8454595,12.5317834 20.6130811,12.2906369 20.2803243,12.2544586 L20.2803243,12.2544586 Z" id="Shape"></path>
            <path d="M15.2970811,13.956879 C16.5355135,13.956879 17.543027,13.1653503 17.543027,12.1924841 C17.543027,11.2196178 16.5355135,10.4280892 15.2970811,10.4280892 C14.0586486,10.4280892 13.0510541,11.2196178 13.0510541,12.1924841 C13.0510541,13.1653503 14.0586486,13.956879 15.2970811,13.956879 Z M15.2970811,11.3835032 C15.8648919,11.3835032 16.3268108,11.7463694 16.3268108,12.1924841 C16.3268108,12.6385987 15.8648919,13.001465 15.2970811,13.001465 C14.7291892,13.001465 14.2672703,12.6385987 14.2672703,12.1924841 C14.2672703,11.7463694 14.7291892,11.3835032 15.2970811,11.3835032 Z" id="Shape"></path>
            <path d="M4.24872973,13.8264331 C4.89616216,14.2894904 5.7672973,14.555414 6.62181081,14.567707 C7.65494595,17.5703185 11.1525405,19.7861783 15.297,19.7861783 C19.4415405,19.7861783 22.938973,17.5703822 23.9721892,14.567707 C24.8267027,14.555414 25.6979189,14.2894268 26.3453514,13.8264331 C26.9956216,13.361465 27.413027,12.7519108 27.5209459,12.11 C27.633973,11.4377707 27.3983514,10.8106369 26.8575405,10.343949 C26.184,9.76273885 25.1342432,9.53968153 24.0882973,9.72095541 C23.6815135,8.21171975 22.650973,6.85356688 21.1778108,5.85095541 L21.9921081,5.85095541 C22.328027,5.85095541 22.6002162,5.63713376 22.6002162,5.37324841 C22.6002162,5.10936306 22.328027,4.8955414 21.9921081,4.8955414 L19.8325135,4.8955414 L19.8325135,3.56292994 C19.8326757,1.59834395 17.798027,0 15.2970811,0 C12.7961351,0 10.7615676,1.59834395 10.7615676,3.56292994 L10.7615676,4.8955414 L8.60189189,4.8955414 C8.26597297,4.8955414 7.99378378,5.10936306 7.99378378,5.37324841 C7.99378378,5.63713376 8.26597297,5.85095541 8.60189189,5.85095541 L9.41627027,5.85095541 C7.94310811,6.85356688 6.91256757,8.21165605 6.50578378,9.72095541 C5.46016216,9.53968153 4.41,9.76273885 3.73654054,10.343949 C3.19572973,10.8105732 2.96018919,11.4377707 3.07313514,12.11 C3.18097297,12.7519108 3.59854054,13.3615287 4.24872973,13.8264331 L4.24872973,13.8264331 Z M15.2970811,0.955414013 C17.1273243,0.955414013 18.6163784,2.12515924 18.6163784,3.56292994 L18.6163784,4.8955414 L11.9777027,4.8955414 L11.9777027,3.56292994 C11.9777838,2.12515924 13.4668378,0.955414013 15.2970811,0.955414013 L15.2970811,0.955414013 Z M4.63581081,10.9871338 C5.10843243,10.5792994 5.94948649,10.4978981 6.72867568,10.7842038 C6.90462162,10.8489809 7.10951351,10.8436306 7.27986486,10.7699363 C7.45021622,10.696242 7.56535135,10.5629936 7.58967568,10.411465 C7.89916216,8.49089172 9.36681081,6.79477707 11.5260811,5.85089172 L19.0681622,5.85089172 C21.2274324,6.79477707 22.695,8.49089172 23.0044865,10.411465 C23.0288919,10.5629936 23.144027,10.696242 23.3142973,10.7698726 C23.4845676,10.8435669 23.6893784,10.8489172 23.8654865,10.7842038 C24.6448378,10.497707 25.4858108,10.5793631 25.9583514,10.9871338 C26.2538919,11.2421656 26.3806216,11.5964331 26.3152703,11.9849045 C26.244973,12.4035032 25.9649189,12.8065605 25.5266757,13.1199363 C25.167,13.3771338 24.6913784,13.5452229 24.2144595,13.5965605 C24.2592162,13.3117197 24.2825676,13.0217834 24.2825676,12.7275796 C24.2825676,12.4636943 24.0103784,12.2498726 23.6744595,12.2498726 C23.3385405,12.2498726 23.0663514,12.4636943 23.0663514,12.7275796 C23.0663514,16.0928662 19.5810811,18.8307006 15.2970811,18.8307006 C11.013,18.8307006 7.52772973,16.0928662 7.52772973,12.7275796 C7.52772973,12.4636943 7.25554054,12.2498726 6.91962162,12.2498726 C6.5837027,12.2498726 6.31151351,12.4636943 6.31151351,12.7275796 C6.31151351,13.0217834 6.33494595,13.3117197 6.37962162,13.5965605 C5.90278378,13.5452229 5.42708108,13.3771338 5.06748649,13.1199363 C4.62932432,12.8066242 4.34927027,12.4035669 4.27881081,11.9849682 C4.21354054,11.5964331 4.34035135,11.2421019 4.63581081,10.9871338 L4.63581081,10.9871338 Z" id="Shape"></path>
        </g>
    </g>
</svg>
