
<svg width="25px" height="31px" viewBox="274 -275 25 31" version="1.1" xmlns="http://www.w3.org/2000/svg" xmlns:xlink="http://www.w3.org/1999/xlink">
    <!-- Generator: Sketch 42 (36781) - http://www.bohemiancoding.com/sketch -->
    <desc>Created with Sketch.</desc>
    <defs></defs>
    <g id="cupcake" stroke="none" stroke-width="1" fill="none" fill-rule="evenodd" transform="translate(274.000000, -274.000000)">
        <g id="Group" fill-rule="nonzero" fill="#000000">
            <path d="M24.9838018,20.2854255 C24.9838018,18.7547234 23.7473373,17.468617 22.0911982,17.1321064 C22.2542899,16.7649574 22.3386834,16.3734894 22.3386834,15.9732128 C22.3386834,14.1871915 20.6548817,12.7341064 18.585355,12.7341064 L14.5340237,12.7341064 L14.5340237,8.38148936 C14.5340237,7.76559574 13.9533284,7.26446809 13.239645,7.26446809 L13.0547337,7.26446809 L13.0547337,5.82829787 C13.0547337,5.56391489 12.8064349,5.34957447 12.5,5.34957447 C12.1935651,5.34957447 11.9452663,5.56391489 11.9452663,5.82829787 L11.9452663,7.26446809 L11.760355,7.26446809 C11.0466716,7.26446809 10.4659763,7.76559574 10.4659763,8.38148936 L10.4659763,12.7340426 L6.41538462,12.7340426 C4.34578402,12.7340426 2.66198225,14.1871277 2.66198225,15.9731489 C2.66198225,16.3734255 2.74637574,16.7649574 2.90954142,17.1320426 C1.25303254,17.4685532 0.0161982249,18.7547234 0.0161982249,20.2854255 C0.0161982249,21.2224468 0.790754438,22.0061489 1.81634615,22.1850638 L3.94230769,29.6357234 C4.0033284,29.849617 4.22566568,30 4.48091716,30 L20.5190828,30 C20.7743343,30 20.9966716,29.8496809 21.0576923,29.6357234 L23.1836538,22.185 C24.2092456,22.0060851 24.9838018,21.222383 24.9838018,20.2854255 Z M11.5754438,8.38142553 C11.5754438,8.29493617 11.6601331,8.22185106 11.760355,8.22185106 L13.239645,8.22185106 C13.3398669,8.22185106 13.4245562,8.29493617 13.4245562,8.38142553 L13.4245562,12.7340426 L11.5754438,12.7340426 L11.5754438,8.38142553 Z M20.0843935,29.0425532 L4.91560651,29.0425532 L2.96989645,22.2234894 L5.87840237,22.2234894 L6.81198225,27.6764043 C6.85273669,27.914234 7.08957101,28.085234 7.36005917,28.085234 C7.38705621,28.085234 7.41434911,28.0835106 7.44186391,28.08 C7.74497041,28.041383 7.95428994,27.798 7.90954142,27.5364255 L6.99992604,22.2234894 L9.92426036,22.2234894 L10.2327663,27.63 C10.2474112,27.8860213 10.4925296,28.0851702 10.7863905,28.0851702 C10.7955621,28.0851702 10.8048077,28.0849787 10.8141272,28.0845957 C11.1201183,28.0715745 11.3559172,27.8469574 11.3409024,27.5828936 L11.0350592,22.2235532 L13.9647929,22.2235532 L13.6589497,27.5828936 C13.6439349,27.8469574 13.8797337,28.0715745 14.1857249,28.0845957 C14.1950444,28.0849787 14.2042899,28.0851702 14.2134615,28.0851702 C14.5073225,28.0851702 14.7524408,27.8860213 14.7670858,27.63 L15.0755917,22.2234894 L17.999926,22.2234894 L17.0903846,27.5364255 C17.0457101,27.798 17.2551036,28.0413191 17.5581361,28.08 C17.5855769,28.0835106 17.6128698,28.085234 17.6398669,28.085234 C17.9102811,28.085234 18.1471893,27.914234 18.1879438,27.6764043 L19.1214497,22.2234894 L22.0299556,22.2234894 L20.0843935,29.0425532 L20.0843935,29.0425532 Z M22.7380178,21.2660426 L2.26198225,21.2660426 C1.63535503,21.2660426 1.12566568,20.8261277 1.12566568,20.2854255 C1.12566568,19.0272766 2.31190828,18.0036383 3.76997041,18.0036383 C3.97551775,18.0036383 4.16427515,17.9055319 4.26035503,17.7487021 C4.35650888,17.5918723 4.34423077,17.4020426 4.22847633,17.2554255 C3.92951183,16.8765957 3.7714497,16.4331702 3.7714497,15.9731489 C3.7714497,14.7150638 4.95754438,13.6914894 6.41538462,13.6914894 L18.5852811,13.6914894 C20.0431213,13.6914894 21.229142,14.7150638 21.229142,15.9731489 C21.229142,16.3510851 21.120784,16.7172128 20.9169379,17.0461915 L5.98890533,17.0461915 C5.68247041,17.0461915 5.4341716,17.2605319 5.4341716,17.5249149 C5.4341716,17.7892979 5.68247041,18.0036383 5.98890533,18.0036383 L21.2307692,18.0036383 C22.6884615,18.0036383 23.8743343,19.0272766 23.8743343,20.2854255 C23.8743343,20.8261277 23.364645,21.2660426 22.7380178,21.2660426 L22.7380178,21.2660426 Z" id="Shape"></path>
            <path d="M10.281287,6.09874468 C10.4127219,6.09874468 10.5447485,6.05865957 10.6505178,5.97714894 C10.879068,5.80104255 10.8988905,5.49842553 10.6948964,5.30119149 C10.2989645,4.91853191 10.0809911,4.42608511 10.0809911,3.91442553 C10.0809911,2.79331915 11.064645,1.62293617 12.5,1.00685106 C13.935429,1.62287234 14.9190828,2.79325532 14.9190828,3.91442553 C14.9190828,4.42608511 14.7010355,4.91853191 14.3051036,5.30119149 C14.1010355,5.4983617 14.120932,5.80104255 14.3494822,5.97708511 C14.5781065,6.15325532 14.9287722,6.13602128 15.1327663,5.93885106 C15.710429,5.38053191 16.0285503,4.66155319 16.0285503,3.91442553 C16.0285503,2.36751064 14.6688609,0.774319149 12.7221893,0.0400212766 C12.5804734,-0.0134042553 12.4195266,-0.0133404255 12.2778107,0.0400212766 C10.3311391,0.774255319 8.97152367,2.36744681 8.97152367,3.9143617 C8.97152367,4.66155319 9.28964497,5.38046809 9.86723373,5.93878723 C9.97684911,6.04480851 10.1286982,6.09880851 10.281287,6.09874468 Z" id="Shape"></path>
        </g>
    </g>
</svg>
