
<svg width="31px" height="31px" viewBox="950 277 31 31" version="1.1" xmlns="http://www.w3.org/2000/svg" xmlns:xlink="http://www.w3.org/1999/xlink">
    <!-- Generator: Sketch 42 (36781) - http://www.bohemiancoding.com/sketch -->
    <desc>Created with Sketch.</desc>
    <defs></defs>
    <g id="diamond" stroke="none" stroke-width="1" fill="none" fill-rule="evenodd" transform="translate(950.000000, 277.000000)">
        <g id="Capa_1" fill-rule="nonzero" fill="#000000">
            <path d="M29.986,9.90763636 C29.9895,9.88527273 29.9915,9.86345455 29.9925,9.84054545 C29.9935,9.81381818 29.993,9.78818182 29.991,9.76145455 C29.989,9.73854545 29.986,9.71672727 29.981,9.69436364 C29.9755,9.66818182 29.968,9.64309091 29.959,9.618 C29.9545,9.60490909 29.9535,9.59127273 29.948,9.57872727 C29.944,9.56945455 29.937,9.56236364 29.9325,9.55309091 C29.928,9.54381818 29.926,9.534 29.921,9.52472727 L24.921,0.797454545 C24.898,0.757636364 24.871,0.721636364 24.8405,0.69 C24.84,0.689454545 24.8395,0.689454545 24.839,0.688909091 C24.796,0.644727273 24.745,0.613090909 24.6905,0.588 C24.6835,0.584727273 24.679,0.578181818 24.6715,0.574909091 C24.666,0.572727273 24.66,0.573818182 24.6545,0.572181818 C24.604,0.553636364 24.552,0.541090909 24.4975,0.541090909 L5.4975,0.541090909 C5.4435,0.541090909 5.392,0.553636364 5.3425,0.571636364 C5.337,0.573272727 5.3315,0.572181818 5.3265,0.574363636 C5.319,0.577090909 5.3145,0.583636364 5.3075,0.586909091 C5.2555,0.610363636 5.2065,0.640909091 5.164,0.682363636 C5.1615,0.685090909 5.158,0.686727273 5.1555,0.688909091 C5.1245,0.720545455 5.097,0.757090909 5.074,0.796909091 L0.074,9.52418182 C0.069,9.53290909 0.067,9.54327273 0.0625,9.55254545 C0.058,9.56181818 0.051,9.56890909 0.047,9.57818182 C0.0415,9.59072727 0.0405,9.60436364 0.0355,9.61745455 C0.0265,9.64254545 0.019,9.66763636 0.0135,9.69381818 C0.009,9.71618182 0.0055,9.73854545 0.0035,9.76145455 C1.73257201e-14,9.78818182 -0.0005,9.81436364 0.0005,9.84054545 C0.0015,9.86345455 0.0035,9.88527273 0.007,9.90763636 C0.011,9.93381818 0.0175,9.95945455 0.0255,9.98509091 C0.032,10.0063636 0.039,10.0270909 0.048,10.0478182 C0.0525,10.0576364 0.054,10.0685455 0.059,10.0783636 C0.067,10.0941818 0.079,10.1061818 0.088,10.1209091 C0.095,10.1323636 0.099,10.1449091 0.1075,10.1558182 L14.602,29.7845455 C14.603,29.7861818 14.604,29.7872727 14.605,29.7883636 L14.6075,29.7921818 C14.609,29.7943636 14.6115,29.7949091 14.613,29.7970909 C14.654,29.8510909 14.705,29.892 14.7605,29.9247273 C14.7755,29.9334545 14.7895,29.9410909 14.805,29.9481818 C14.8655,29.976 14.9295,29.9956364 14.9965,29.9956364 C15.0535,29.9956364 15.111,29.9847273 15.168,29.9623636 C15.1765,29.9590909 15.182,29.9514545 15.1905,29.9476364 C15.216,29.9361818 15.236,29.9176364 15.259,29.9018182 C15.297,29.8756364 15.3325,29.8483636 15.362,29.8129091 C15.369,29.8047273 15.3795,29.8009091 15.386,29.7921818 L29.886,10.1558182 C29.894,10.1449091 29.898,10.1318182 29.9055,10.1209091 C29.915,10.1061818 29.9265,10.0941818 29.9345,10.0783636 C29.9395,10.0685455 29.941,10.0576364 29.9455,10.0478182 C29.9545,10.0270909 29.9615,10.0069091 29.968,9.98509091 C29.975,9.95945455 29.982,9.93436364 29.986,9.90763636 Z M16.0475,1.63254545 L23.777,1.63254545 L21.347,8.748 L16.0475,1.63254545 Z M20.446,9.26890909 L9.5475,9.26890909 L14.9965,1.95272727 L20.446,9.26890909 Z M8.611,8.79545455 L6.2115,1.63254545 L13.946,1.63254545 L8.611,8.79545455 Z M20.7965,10.3598182 L14.909,27.5994545 L9.1345,10.3598182 L20.7965,10.3598182 Z M24.6105,2.316 L28.594,9.26945455 L22.236,9.26945455 L24.6105,2.316 Z M5.378,2.32309091 L7.7045,9.26890909 L1.399,9.26890909 L5.378,2.32309091 Z M8.07,10.3598182 L13.4895,26.5401818 L1.5415,10.3598182 L8.07,10.3598182 Z M16.195,26.958 L21.8635,10.3598182 L28.4515,10.3598182 L16.195,26.958 Z" id="Shape"></path>
        </g>
    </g>
</svg>
