
<svg width="30px" height="30px" viewBox="406 -19 30 30" version="1.1" xmlns="http://www.w3.org/2000/svg" xmlns:xlink="http://www.w3.org/1999/xlink">
    <!-- Generator: Sketch 42 (36781) - http://www.bohemiancoding.com/sketch -->
    <desc>Created with Sketch.</desc>
    <defs></defs>
    <g id="compact-disc" stroke="none" stroke-width="1" fill="none" fill-rule="evenodd" transform="translate(406.000000, -19.000000)">
        <g id="Capa_1" fill-rule="nonzero" fill="#000000">
            <g id="Group">
                <path d="M15,0 C6.729,0 0,6.729 0,15 C0,23.271 6.729,30 15,30 C23.271,30 30,23.271 30,15 C30,6.729 23.271,0 15,0 Z M15,29 C7.2805,29 1,22.7195 1,15 C1,7.2805 7.2805,1 15,1 C22.7195,1 29,7.2805 29,15 C29,22.7195 22.7195,29 15,29 Z" id="Shape"></path>
                <path d="M11.5825,4.2295 C11.851,4.1645 12.0165,3.8945 11.952,3.6265 C11.8875,3.358 11.617,3.1935 11.349,3.257 C9.3815,3.73 7.588,4.7345 6.161,6.1615 C4.734,7.5885 3.73,9.382 3.257,11.349 C3.1925,11.617 3.358,11.887 3.6265,11.952 C3.6655,11.9615 3.705,11.9655 3.7435,11.9655 C3.969,11.9655 4.174,11.8115 4.2295,11.582 C4.659,9.7945 5.572,8.164 6.868,6.8675 C8.164,5.571 9.795,4.659 11.5825,4.2295 Z" id="Shape"></path>
                <path d="M26.3735,18.048 C26.1045,17.9835 25.835,18.1485 25.7705,18.4175 C25.341,20.205 24.428,21.8355 23.132,23.132 C21.836,24.4285 20.205,25.341 18.417,25.7705 C18.1485,25.8355 17.983,26.1055 18.0475,26.3735 C18.1025,26.603 18.308,26.757 18.5335,26.757 C18.572,26.757 18.6115,26.7525 18.6505,26.7435 C20.6185,26.2705 22.412,25.266 23.839,23.839 C25.266,22.412 26.27,20.6185 26.7435,18.651 C26.8075,18.383 26.642,18.113 26.3735,18.048 Z" id="Shape"></path>
                <path d="M12.226,6.643 C12.495,6.5805 12.6625,6.3115 12.5995,6.043 C12.537,5.774 12.267,5.604 11.9995,5.6695 C10.4545,6.0295 9.0475,6.8105 7.929,7.9295 C6.8105,9.0475 6.029,10.455 5.669,12 C5.606,12.2685 5.7735,12.5375 6.0425,12.6 C6.0805,12.6095 6.1185,12.613 6.1565,12.613 C6.3835,12.613 6.589,12.457 6.643,12.2265 C6.9605,10.864 7.65,9.623 8.636,8.6365 C9.622,7.65 10.864,6.9605 12.226,6.643 Z" id="Shape"></path>
                <path d="M24.3305,18.0005 C24.3935,17.732 24.226,17.463 23.957,17.4005 C23.688,17.334 23.4195,17.505 23.357,17.774 C23.0395,19.1365 22.35,20.3775 21.364,21.364 C20.378,22.3505 19.1365,23.04 17.774,23.357 C17.505,23.4195 17.3375,23.6885 17.4005,23.957 C17.454,24.188 17.66,24.3435 17.887,24.3435 C17.9245,24.3435 17.9625,24.3395 18.001,24.3305 C19.546,23.9705 20.953,23.1895 22.0715,22.0705 C23.1895,20.9525 23.9705,19.5455 24.3305,18.0005 Z" id="Shape"></path>
                <path d="M13.2475,8.4625 C13.188,8.192 12.921,8.023 12.6525,8.081 C10.374,8.5795 8.5795,10.374 8.081,12.6525 C8.022,12.922 8.193,13.1885 8.4625,13.2475 C8.4985,13.2555 8.5345,13.259 8.57,13.259 C8.8,13.259 9.0065,13.1 9.058,12.866 C9.4735,10.968 10.9685,9.473 12.8665,9.0575 C13.1355,8.9985 13.3065,8.732 13.2475,8.4625 Z" id="Shape"></path>
                <path d="M21.919,17.3475 C21.978,17.078 21.807,16.8115 21.5375,16.7525 C21.2675,16.6935 21.0015,16.8635 20.9425,17.134 C20.527,19.032 19.032,20.527 17.134,20.9425 C16.8645,21.0015 16.6935,21.268 16.7525,21.5375 C16.804,21.7715 17.0105,21.9305 17.2405,21.9305 C17.276,21.9305 17.312,21.9265 17.348,21.919 C19.626,21.4205 21.4205,19.626 21.919,17.3475 Z" id="Shape"></path>
                <path d="M19.04,15 C19.04,12.7725 17.2275,10.96 15,10.96 C12.7725,10.96 10.96,12.7725 10.96,15 C10.96,17.2275 12.7725,19.04 15,19.04 C17.2275,19.04 19.04,17.2275 19.04,15 Z M15,18.04 C13.3235,18.04 11.96,16.676 11.96,15 C11.96,13.324 13.324,11.96 15,11.96 C16.676,11.96 18.04,13.324 18.04,15 C18.04,16.676 16.6765,18.04 15,18.04 Z" id="Shape"></path>
            </g>
        </g>
    </g>
</svg>
