
<svg width="28px" height="13px" viewBox="1077 580 28 13" version="1.1" xmlns="http://www.w3.org/2000/svg" xmlns:xlink="http://www.w3.org/1999/xlink">
    <!-- Generator: Sketch 42 (36781) - http://www.bohemiancoding.com/sketch -->
    <desc>Created with Sketch.</desc>
    <defs></defs>
    <g id="view" stroke="none" stroke-width="1" fill="none" fill-rule="evenodd" transform="translate(1077.000000, 580.000000)">
        <g id="Capa_1" fill-rule="nonzero" fill="#AE2525">
            <path d="M27.8333926,5.72962963 C24.1581512,2.03474074 19.260565,0 14.0419443,0 C14.0322892,0 14.0231168,0.000481481481 14.0134616,0.000481481481 C14.008634,0.000481481481 14.0042892,0 13.9999443,0 C13.9869099,0 13.9738754,0.00192592593 13.9608409,0.00192592593 C8.77311676,0.0226296296 3.90690987,2.054 0.250978832,5.72962963 L0.139944349,5.84133333 C-0.0478487544,6.03007407 -0.0464004785,6.33485185 0.142840901,6.52214815 C0.236978832,6.61507407 0.36008228,6.66177778 0.48270297,6.66177778 C0.606771935,6.66177778 0.731323659,6.61411111 0.82546159,6.51925926 L0.936496073,6.40755556 C3.47290987,3.85714815 6.62435814,2.14403704 10.0582202,1.39485185 C8.63649607,2.54318519 7.72408228,4.29625926 7.72408228,6.25877778 C7.72408228,9.71003704 10.5395306,12.518037 13.9999443,12.518037 C17.4603581,12.518037 20.2758064,9.71003704 20.2758064,6.25877778 C20.2758064,4.27988889 19.3474616,2.51574074 17.9054616,1.36788889 C21.386634,2.10311111 24.5815306,3.8272963 27.1478754,6.40755556 C27.3356685,6.59677778 27.6417375,6.59774074 27.8304961,6.41044444 C28.0197375,6.22314815 28.0211857,5.91837037 27.8333926,5.72962963 Z M13.9999443,3.85137037 C12.6689788,3.85137037 11.5861512,4.93133333 11.5861512,6.25877778 C11.5861512,6.52455556 11.3698754,6.74025926 11.1033926,6.74025926 C10.8369099,6.74025926 10.620634,6.52455556 10.620634,6.25877778 C10.620634,4.40025926 12.1364961,2.88840741 13.9999443,2.88840741 C14.2664271,2.88840741 14.482703,3.10411111 14.482703,3.36988889 C14.482703,3.63566667 14.2664271,3.85137037 13.9999443,3.85137037 Z" id="Shape"></path>
        </g>
    </g>
</svg>
