
<svg width="31px" height="32px" viewBox="30 -518 31 32" version="1.1" xmlns="http://www.w3.org/2000/svg" xmlns:xlink="http://www.w3.org/1999/xlink">
    <!-- Generator: Sketch 42 (36781) - http://www.bohemiancoding.com/sketch -->
    <desc>Created with Sketch.</desc>
    <defs></defs>
    <g id="fireworks" stroke="none" stroke-width="1" fill="none" fill-rule="evenodd" transform="translate(30.000000, -518.000000)">
        <g id="Layer_1" fill-rule="nonzero">
            <g id="Group" transform="translate(0.000000, 0.042667)">
                <g transform="translate(10.757238, 1.600000)" id="Shape">
                    <path d="M6.21962138,7.748 C6.03761693,7.74393333 5.86610245,7.83273333 5.7644098,7.9834 L4.90830735,9.248 L3.67429844,7.9188 C3.47298441,7.70333333 3.13469933,7.6916 2.91875278,7.89246667 C2.79668151,8.006 2.73481069,8.16993333 2.75138085,8.33553333 L2.91013363,9.85426667 L1.11026726,9.6272 C0.817349666,9.59033333 0.549955457,9.79753333 0.513140312,10.0898 C0.492160356,10.2563333 0.550890869,10.423 0.671759465,10.5396667 L1.77213808,11.6022 L0.245879733,12.5834667 C-0.00173719376,12.7438667 -0.0720935412,13.0742 0.0887305122,13.3213333 C0.179465479,13.4606667 0.330200445,13.55 0.49636971,13.5626 L2.02476615,13.6708 L1.48610245,15.4020667 C1.40017817,15.6838667 1.55953229,15.9818667 1.84202673,16.0675333 C2.00198218,16.1161333 2.1754343,16.0872 2.3108686,15.9894 L3.54902004,15.0935333 L4.25265033,16.7644 C4.3681069,17.0354667 4.68193764,17.1619333 4.95367483,17.0468 C5.10788419,16.9814667 5.22247216,16.8477333 5.2632294,16.6854667 L5.63492205,15.2042 L7.25097996,16.0334 C7.5136971,16.1679333 7.83587973,16.0644 7.97057906,15.8022667 C8.04741648,15.6528 8.04922049,15.4759333 7.97545657,15.3250667 L7.30530067,13.9521333 L9.07583519,13.5521333 C9.36387528,13.4874 9.54474388,13.202 9.47986637,12.9146 C9.44265033,12.7496 9.32919822,12.612 9.17418708,12.5437333 L7.77734967,11.9228 L8.8755902,10.4790667 C9.05445434,10.2446667 9.00902004,9.91006667 8.774098,9.73153333 C8.63939866,9.6292 8.46400891,9.59666667 8.30138085,9.64366667 L6.83144766,10.0646 L6.74164811,8.2542 C6.72755011,7.9758 6.50097996,7.75526667 6.22175947,7.74793333 L6.21962138,7.748 Z" fill="#464C63"></path>
                    <path d="M3.98124722,9.8188 L4.58258352,10.4667333 C4.78349666,10.6826 5.12171492,10.6951333 5.33806236,10.4947333 C5.36812918,10.4668667 5.39492205,10.4356 5.41783964,10.4016667 L5.75191537,9.9058 L5.7957461,10.7870667 C5.8098441,11.0813333 6.06026726,11.3084 6.35518931,11.2944667 C6.39621381,11.2925333 6.43690423,11.2857333 6.47639198,11.2745333 L7.05273942,11.1099333 L6.51821826,11.812 C6.33955457,12.0465333 6.38518931,12.3811333 6.62017817,12.5594 C6.65318486,12.5845333 6.68906459,12.6056 6.72701559,12.6224 L7.27403118,12.8661333 L6.41164811,13.062 C6.12374165,13.1271333 5.94320713,13.4128 6.00841871,13.7 C6.01737194,13.7394667 6.03073497,13.7777333 6.04837416,13.8140667 L6.3114922,14.3536667 L5.52434298,13.9494667 C5.26162584,13.8150667 4.93944321,13.9186 4.80474388,14.1807333 C4.78636971,14.2165333 4.77207127,14.2543333 4.76218263,14.2932667 L4.61605791,14.8745333 L4.27356347,14.0599333 C4.15890869,13.7884667 3.84541203,13.6611333 3.57334076,13.7755333 C3.53592428,13.7912667 3.50051225,13.8112 3.4676392,13.8349333 L2.9832294,14.1849333 L3.24427617,13.3434 C3.33140312,13.0618667 3.1733853,12.7633333 2.89135857,12.6763333 C2.85200445,12.6642 2.81138085,12.6566667 2.77028953,12.6538 L2.17095768,12.6122667 L2.91641425,12.1330667 C3.16429844,11.9730667 3.23525612,11.6428 3.07483296,11.3954667 C3.05278396,11.3614667 3.02685969,11.3301333 2.99766147,11.3018667 L2.56757238,10.8872667 L3.44452116,10.9978 C3.73737194,11.0350667 4.00510022,10.8284 4.04244989,10.5362 C4.04772829,10.4950667 4.04812918,10.4535333 4.04371938,10.4122667 L3.98124722,9.8188 Z" fill="#FFB900"></path>
                    <path d="M4.73659243,0.03 C4.44140312,0.0345333333 4.20581292,0.277133333 4.21042316,0.571666667 L4.21042316,0.571666667 L4.21042316,5.89253333 C4.20628062,6.18706667 4.4422049,6.42926667 4.73739421,6.4334 C5.03258352,6.4376 5.27532294,6.20213333 5.27946548,5.9076 C5.27953229,5.90253333 5.27953229,5.8976 5.27946548,5.89246667 L5.27946548,0.5716 C5.28407572,0.277066667 5.04855234,0.0345333333 4.75329621,0.0299333333 C4.74775056,0.0299333333 4.7422049,0.0299333333 4.73659243,0.03 Z" fill="#464C63"></path>
                </g>
                <g id="Shape" fill="#464C63">
                    <path d="M14.9678619,9.0912 C14.9678619,9.38573333 15.2071938,9.62453333 15.5023831,9.62453333 C15.7975724,9.62453333 16.0369042,9.38573333 16.0369042,9.0912 C16.0369042,8.79666667 15.7975724,8.55786667 15.5023831,8.55786667 C15.2071938,8.55786667 14.9678619,8.79666667 14.9678619,9.0912 Z"></path>
                    <path d="M11.760735,10.1578667 C11.760735,10.4524 12.0000668,10.6912 12.2952561,10.6912 C12.5904454,10.6912 12.8297773,10.4524 12.8297773,10.1578667 C12.8297773,9.86333333 12.5904454,9.62453333 12.2952561,9.62453333 C12.0000668,9.62453333 11.760735,9.86333333 11.760735,10.1578667 Z"></path>
                    <path d="M10.1571715,13.3578667 C10.1571715,13.6524 10.3965033,13.8912 10.6916927,13.8912 C10.986882,13.8912 11.2262138,13.6524 11.2262138,13.3578667 C11.2262138,13.0633333 10.986882,12.8245333 10.6916927,12.8245333 C10.3965033,12.8245333 10.1571715,13.0633333 10.1571715,13.3578667 Z"></path>
                    <path d="M10.6916927,16.5578667 C10.6916927,16.8524 10.9310245,17.0912 11.2262138,17.0912 C11.5214031,17.0912 11.760735,16.8524 11.760735,16.5578667 C11.760735,16.2633333 11.5214031,16.0245333 11.2262138,16.0245333 C10.9310245,16.0245333 10.6916927,16.2633333 10.6916927,16.5578667 Z"></path>
                    <path d="M13.3642984,18.6912 C13.3642984,18.9857333 13.6036303,19.2245333 13.8988196,19.2245333 C14.1940089,19.2245333 14.4333408,18.9857333 14.4333408,18.6912 C14.4333408,18.3966667 14.1940089,18.1578667 13.8988196,18.1578667 C13.6036303,18.1578667 13.3642984,18.3966667 13.3642984,18.6912 Z"></path>
                    <path d="M17.1059465,18.6912 C17.1059465,18.9857333 17.3452784,19.2245333 17.6404677,19.2245333 C17.935657,19.2245333 18.1749889,18.9857333 18.1749889,18.6912 C18.1749889,18.3966667 17.935657,18.1578667 17.6404677,18.1578667 C17.3452784,18.1578667 17.1059465,18.3966667 17.1059465,18.6912 Z"></path>
                    <path d="M19.2440312,16.5578667 C19.2440312,16.8524 19.483363,17.0912 19.7785523,17.0912 C20.0737416,17.0912 20.3130735,16.8524 20.3130735,16.5578667 C20.3130735,16.2633333 20.0737416,16.0245333 19.7785523,16.0245333 C19.483363,16.0245333 19.2440312,16.2633333 19.2440312,16.5578667 Z"></path>
                    <path d="M19.7785523,12.8245333 C19.7785523,13.1190667 20.0178842,13.3578667 20.3130735,13.3578667 C20.6082628,13.3578667 20.8475947,13.1190667 20.8475947,12.8245333 C20.8475947,12.53 20.6082628,12.2912 20.3130735,12.2912 C20.0178842,12.2912 19.7785523,12.53 19.7785523,12.8245333 Z"></path>
                    <path d="M18.1749889,10.1578667 C18.1749889,10.4524 18.4143207,10.6912 18.70951,10.6912 C19.0046993,10.6912 19.2440312,10.4524 19.2440312,10.1578667 C19.2440312,9.86333333 19.0046993,9.62453333 18.70951,9.62453333 C18.4143207,9.62453333 18.1749889,9.86333333 18.1749889,10.1578667 Z"></path>
                    <g transform="translate(0.000000, 3.200000)">
                        <g transform="translate(2.672606, 0.000000)">
                            <path d="M4.25839644,0.0258666667 C3.96327394,0.035 3.7314922,0.281066667 3.74064588,0.575466667 C3.74572383,0.739 3.82576837,0.8912 3.9577951,0.988333333 C5.78198218,2.38153333 6.71665924,3.933 7.53447661,5.58833333 C7.66536748,5.8524 7.98601336,5.9606 8.25066815,5.83 C8.51532294,5.6994 8.62376392,5.37946667 8.49287305,5.1154 C7.64812918,3.40553333 6.59819599,1.66086667 4.60710468,0.1404 C4.50808463,0.0622666667 4.38461024,0.0218 4.25839644,0.0258666667 Z"></path>
                            <path d="M3.55476615,9.38 C2.52701559,9.45146667 1.45743875,9.70393333 0.320512249,10.2029333 C0.0501113586,10.3214 -0.0728285078,10.6362667 0.0459688196,10.9060667 C0.164766147,11.1758667 0.480267261,11.2985333 0.750668151,11.18 L0.750668151,11.18 C2.82066815,10.2715333 4.51570156,10.2714 6.29832962,10.6779333 C6.58423163,10.7514 6.87567929,10.5796 6.94924276,10.2943333 C7.02280624,10.0090667 6.85069042,9.71826667 6.56478842,9.64486667 C6.55536748,9.6424 6.54594655,9.64033333 6.53639198,9.63833333 C5.56930958,9.41773333 4.58265033,9.30826667 3.55476615,9.38 L3.55476615,9.38 Z"></path>
                            <path d="M22.0479287,8.8842 C21.0512472,8.8692 20.1332739,9.02066667 19.2103563,9.09253333 C18.9157016,9.11493333 18.695078,9.37146667 18.7175278,9.66533333 C18.7399777,9.95933333 18.9970156,10.1795333 19.2916036,10.1571333 C21.2554343,10.0042667 22.6925612,9.57846667 24.8915813,10.6384 C25.1524276,10.7762667 25.4760134,10.6772 25.6142539,10.4169333 C25.7524944,10.1566667 25.6531403,9.83386667 25.392294,9.69586667 C25.3801336,9.68946667 25.3677728,9.68346667 25.3551448,9.678 C24.1182628,9.0818 23.0445434,8.89933333 22.0478619,8.88426667 L22.0479287,8.88426667 L22.0479287,8.8842 Z"></path>
                            <path d="M21.3819154,0.0258666667 C21.2619154,0.0268 21.1457238,0.0678 21.0519822,0.142533333 C18.9609354,1.75046667 18.001069,3.47626667 17.1683519,5.11126667 C17.034588,5.37413333 17.139755,5.69553333 17.4032739,5.829 C17.6667929,5.96246667 17.9888419,5.85753333 18.1226058,5.5946 C18.9439644,3.98186667 19.7767483,2.46793333 21.7034967,0.986266667 C21.9398886,0.809733333 21.9880624,0.475466667 21.8111359,0.239666667 C21.7099777,0.104733333 21.5508241,0.0254666667 21.3819154,0.0258666667 Z"></path>
                            <path d="M19.2501782,13.8946 C18.9550557,13.8874667 18.7099109,14.1202667 18.7026949,14.4148 C18.6962138,14.6780667 18.883363,14.9067333 19.1432739,14.9529333 C20.7408241,15.2778 21.7013586,16.3626667 22.50902,17.8716667 C22.6411136,18.1350667 22.962294,18.2418667 23.2262806,18.1099333 C23.4903341,17.9781333 23.5972383,17.6577333 23.4651448,17.3943333 C23.4606013,17.3852 23.4557906,17.3763333 23.4507127,17.3675333 C22.5723608,15.7265333 21.3395546,14.3105333 19.356147,13.9071333 C19.3210022,13.8993333 19.2851893,13.895 19.2492428,13.8944 L19.2501782,13.8946 Z"></path>
                            <path d="M15.4875501,16.5529333 C15.1923608,16.5589333 14.9579065,16.8024 14.963853,17.0969333 C14.966392,17.2219333 15.0127617,17.342 15.0949443,17.4362667 C16.6500668,19.2708 16.5487082,20.683 16.5711581,22.4321333 C16.574833,22.7266667 16.8171047,22.9624667 17.112294,22.9588 C17.4074833,22.9551333 17.6438753,22.7134667 17.6402004,22.4189333 L17.6402004,22.4171333 C17.6177506,20.7072667 17.6679955,18.8188 15.9113586,16.7462667 C15.8071938,16.6203333 15.6510468,16.549 15.4874833,16.5525333 L15.4875501,16.5529333 Z"></path>
                            <path d="M6.96033408,13.8883333 C6.9123608,13.8883333 6.86458797,13.8947333 6.81835189,13.9074667 C4.26100223,14.5603333 3.57561247,16.1632 2.78017817,17.3116667 C2.6047216,17.5486667 2.65503341,17.8826 2.89249443,18.0576 C3.12995546,18.2326 3.46469933,18.1824667 3.64008909,17.9454667 C3.6467706,17.9364667 3.65311804,17.9272667 3.65919822,17.9178667 C4.5547216,16.6248667 4.86120267,15.5081333 7.08347439,14.9408 C7.37057906,14.8722 7.54757238,14.5842667 7.47875278,14.2978 C7.42122494,14.0583333 7.20701559,13.8893333 6.96033408,13.8886667 L6.96033408,13.8883333 Z"></path>
                            <path d="M10.708196,16.5508667 C10.5132962,16.5469333 10.3316927,16.6490667 10.2342762,16.8175333 C9.11071269,18.6856 8.71550111,20.6188667 9.09841871,22.5299333 C9.15293987,22.8194 9.43242762,23.01 9.72253898,22.9556 C10.0126503,22.9012 10.2036748,22.6224 10.1491537,22.3328 C10.1483519,22.3285333 10.1474165,22.3240667 10.1464811,22.3196667 C9.81734967,20.6764667 10.1347216,19.0540667 11.1508463,17.3654 C11.3064588,17.1151333 11.2292873,16.7862 10.9783964,16.631 C10.8971492,16.5805333 10.8038085,16.5529333 10.708196,16.5508667 Z"></path>
                        </g>
                        <path d="M3.92492205,0.2542 C3.78106904,0.258133333 3.64476615,0.319666667 3.54701559,0.425066667 L2.49467706,1.55426667 L1.07485523,0.948 C0.803518931,0.831866667 0.48922049,0.957133333 0.372828508,1.2278 C0.30714922,1.38066667 0.316570156,1.55526667 0.398418708,1.70006667 L1.15008909,3.04593333 L0.133229399,4.20633333 C-0.0617371938,4.42753333 -0.0400222717,4.76453333 0.181737194,4.95906667 C0.30714922,5.06906667 0.476926503,5.11426667 0.640623608,5.08133333 L2.15438753,4.7834 L2.94781737,6.10633333 C3.09922049,6.3592 3.42741648,6.44173333 3.68091314,6.29073333 C3.82309577,6.206 3.91790646,6.06013333 3.93755011,5.89606667 L4.12129176,4.3648 L5.62877506,4.02313333 C5.91654788,3.9574 6.09641425,3.67133333 6.03046771,3.38406667 C5.99351893,3.22313333 5.88380846,3.0882 5.7335412,3.01893333 L4.33256125,2.371 L4.47033408,0.8356 C4.4969265,0.542266667 4.28011136,0.282866667 3.98605791,0.256333333 C3.96587973,0.254666667 3.94563474,0.253866667 3.92532294,0.2544 L3.92492205,0.2542 Z M3.26505568,2.29586667 L3.23405345,2.65006667 C3.21300668,2.87466667 3.33587973,3.08833333 3.54100223,3.1834 L3.86258352,3.33133333 L3.51801782,3.41026667 C3.29739421,3.45973333 3.13182628,3.6424 3.10463252,3.86653333 L3.06293987,4.2186 L2.8813363,3.9144 C2.76541203,3.7204 2.53951002,3.62026667 2.31755011,3.66453333 L1.96890869,3.73066667 L2.20269488,3.464 C2.35135857,3.2946 2.3774833,3.05046667 2.26790646,2.8536 L2.09458797,2.5432 L2.42244989,2.6828 C2.62971047,2.7712 2.87024499,2.72033333 3.02378619,2.55573333 L3.26505568,2.29586667 Z"></path>
                        <path d="M23.7125612,20.6834 C23.6228953,20.6858667 23.5353675,20.7108667 23.4579287,20.7559333 C23.3325835,20.8286 23.2421158,20.9489333 23.2073719,21.0892667 L22.8378174,22.583 L21.301069,22.7392667 C21.0071492,22.767 20.7913363,23.0271333 20.8190646,23.3204 C20.834833,23.4872 20.9282405,23.6369333 21.0712918,23.7246667 L22.3847439,24.5392667 L22.05902,26.0455333 C21.9967483,26.3335333 22.1802227,26.6172667 22.4688641,26.6794 C22.6304232,26.7141333 22.7989978,26.6724667 22.9254788,26.5664 L24.1073051,25.5726667 L25.443608,26.3476667 C25.6998441,26.494 26.0264365,26.4053333 26.1730958,26.1496 C26.2540757,26.0086 26.2660356,25.8382667 26.2057016,25.6872 L25.6252116,24.2559333 L26.7757016,23.2309333 C26.9967929,23.0356 27.0173051,22.6986667 26.8216704,22.4780667 C26.7108241,22.3530667 26.5477951,22.2870667 26.3810245,22.2996667 L24.8401336,22.4120667 L24.2158129,20.9995333 C24.1278842,20.802 23.9291759,20.677 23.7126281,20.6828667 L23.7125612,20.6834 Z M23.871314,22.8625333 L24.0132962,23.1854667 C24.1045657,23.3918667 24.3160356,23.5186667 24.5415367,23.5021333 L24.8944543,23.4776667 L24.6313363,23.7130667 C24.4628953,23.8629333 24.406971,24.1022667 24.4914922,24.311 L24.6271269,24.6422667 L24.3181737,24.4630667 C24.1230735,24.3492667 23.8771938,24.3700667 23.7042094,24.5152667 L23.4328062,24.7444667 L23.5076392,24.3965333 C23.5552784,24.1771333 23.4602004,23.9514667 23.2696437,23.8319333 L22.9669042,23.6444 L23.3196882,23.6092667 C23.5444543,23.5868667 23.7308686,23.4259333 23.7853898,23.2072 L23.871314,22.8625333 Z"></path>
                    </g>
                    <path d="M14.4333408,25.0912 C14.4333408,25.3857333 14.6726726,25.6245333 14.9678619,25.6245333 C15.2630512,25.6245333 15.5023831,25.3857333 15.5023831,25.0912 C15.5023831,24.7966667 15.2630512,24.5578667 14.9678619,24.5578667 C14.6726726,24.5578667 14.4333408,24.7966667 14.4333408,25.0912 L14.4333408,25.0912 Z"></path>
                    <path d="M2.67387528,18.6912 C2.67387528,18.9857333 2.91320713,19.2245333 3.20839644,19.2245333 C3.50358575,19.2245333 3.74291759,18.9857333 3.74291759,18.6912 C3.74291759,18.3966667 3.50358575,18.1578667 3.20839644,18.1578667 C2.91320713,18.1578667 2.67387528,18.3966667 2.67387528,18.6912 Z"></path>
                    <path d="M8.55360802,23.4912 C8.55360802,23.7857333 8.79293987,24.0245333 9.08812918,24.0245333 C9.38331849,24.0245333 9.62265033,23.7857333 9.62265033,23.4912 C9.62265033,23.1966667 9.38331849,22.9578667 9.08812918,22.9578667 C8.79293987,22.9578667 8.55360802,23.1966667 8.55360802,23.4912 Z"></path>
                    <path d="M7.4845657,9.62453333 C7.4845657,9.91906667 7.72389755,10.1578667 8.01908686,10.1578667 C8.31427617,10.1578667 8.55360802,9.91906667 8.55360802,9.62453333 C8.55360802,9.33 8.31427617,9.0912 8.01908686,9.0912 C7.72389755,9.0912 7.4845657,9.33 7.4845657,9.62453333 Z"></path>
                    <path d="M23.5202004,9.0912 C23.5202004,9.38573333 23.7595323,9.62453333 24.0547216,9.62453333 C24.3499109,9.62453333 24.5892428,9.38573333 24.5892428,9.0912 C24.5892428,8.79666667 24.3499109,8.55786667 24.0547216,8.55786667 C23.7595323,8.55786667 23.5202004,8.79666667 23.5202004,9.0912 Z"></path>
                    <path d="M25.6582851,14.9578667 C25.6582851,15.2524 25.8976169,15.4912 26.1928062,15.4912 C26.4879955,15.4912 26.7273274,15.2524 26.7273274,14.9578667 C26.7273274,14.6633333 26.4879955,14.4245333 26.1928062,14.4245333 C25.8976169,14.4245333 25.6582851,14.6633333 25.6582851,14.9578667 Z"></path>
                    <path d="M21.916637,22.4245333 C21.916637,22.7190667 22.1559688,22.9578667 22.4511581,22.9578667 C22.7463474,22.9578667 22.9856793,22.7190667 22.9856793,22.4245333 C22.9856793,22.13 22.7463474,21.8912 22.4511581,21.8912 C22.1559688,21.8912 21.916637,22.13 21.916637,22.4245333 Z"></path>
                    <path d="M10.6916927,3.75786667 C10.6916927,4.0524 10.9310245,4.2912 11.2262138,4.2912 C11.5214031,4.2912 11.760735,4.0524 11.760735,3.75786667 C11.760735,3.46333333 11.5214031,3.22453333 11.2262138,3.22453333 C10.9310245,3.22453333 10.6916927,3.46333333 10.6916927,3.75786667 Z"></path>
                    <path d="M14.9678619,0.557933333 C14.9678619,0.852466667 15.2071938,1.09126667 15.5023831,1.09126667 C15.7975724,1.09126667 16.0369042,0.852466667 16.0369042,0.557933333 C16.0369042,0.2634 15.7975724,0.0246 15.5023831,0.0246 C15.2071938,0.0246 14.9678619,0.2634 14.9678619,0.557933333 Z"></path>
                    <path d="M19.2440312,3.75786667 C19.2440312,4.0524 19.483363,4.2912 19.7785523,4.2912 C20.0737416,4.2912 20.3130735,4.0524 20.3130735,3.75786667 C20.3130735,3.46333333 20.0737416,3.22453333 19.7785523,3.22453333 C19.483363,3.22453333 19.2440312,3.46333333 19.2440312,3.75786667 Z"></path>
                    <path d="M4.81195991,15.4912 C4.81195991,15.7857333 5.05129176,16.0245333 5.34648107,16.0245333 C5.64167038,16.0245333 5.88100223,15.7857333 5.88100223,15.4912 C5.88100223,15.1966667 5.64167038,14.9578667 5.34648107,14.9578667 C5.05129176,14.9578667 4.81195991,15.1966667 4.81195991,15.4912 Z"></path>
                    <path d="M4.27743875,22.4245333 C4.27743875,22.7190667 4.5167706,22.9578667 4.81195991,22.9578667 C5.10714922,22.9578667 5.34648107,22.7190667 5.34648107,22.4245333 C5.34648107,22.13 5.10714922,21.8912 4.81195991,21.8912 C4.5167706,21.8912 4.27743875,22.13 4.27743875,22.4245333 Z"></path>
                    <path d="M1.0703118,14.4245333 C1.0703118,14.7190667 1.30964365,14.9578667 1.60483296,14.9578667 C1.90002227,14.9578667 2.13935412,14.7190667 2.13935412,14.4245333 C2.13935412,14.13 1.90002227,13.8912 1.60483296,13.8912 C1.30964365,13.8912 1.0703118,14.13 1.0703118,14.4245333 Z"></path>
                    <path d="M24.5892428,2.6912 C24.5892428,2.98573333 24.8285746,3.22453333 25.1237639,3.22453333 C25.4189532,3.22453333 25.6582851,2.98573333 25.6582851,2.6912 C25.6582851,2.39666667 25.4189532,2.15786667 25.1237639,2.15786667 C24.8285746,2.15786667 24.5892428,2.39666667 24.5892428,2.6912 Z"></path>
                    <path d="M28.865412,13.8912 C28.865412,14.1857333 29.1047439,14.4245333 29.3999332,14.4245333 C29.6951225,14.4245333 29.9344543,14.1857333 29.9344543,13.8912 C29.9344543,13.5966667 29.6951225,13.3578667 29.3999332,13.3578667 C29.1047439,13.3578667 28.865412,13.5966667 28.865412,13.8912 Z"></path>
                    <path d="M26.1928062,22.4245333 C26.1928062,22.7190667 26.4321381,22.9578667 26.7273274,22.9578667 C27.0225167,22.9578667 27.2618486,22.7190667 27.2618486,22.4245333 C27.2618486,22.13 27.0225167,21.8912 26.7273274,21.8912 C26.4321381,21.8912 26.1928062,22.13 26.1928062,22.4245333 Z"></path>
                    <path d="M11.760735,27.2245333 C11.760735,27.5190667 12.0000668,27.7578667 12.2952561,27.7578667 C12.5904454,27.7578667 12.8297773,27.5190667 12.8297773,27.2245333 C12.8297773,26.93 12.5904454,26.6912 12.2952561,26.6912 C12.0000668,26.6912 11.760735,26.93 11.760735,27.2245333 Z"></path>
                </g>
            </g>
        </g>
    </g>
</svg>
