
<svg width="25px" height="31px" viewBox="-126 -757 25 31" version="1.1" xmlns="http://www.w3.org/2000/svg" xmlns:xlink="http://www.w3.org/1999/xlink">
    <!-- Generator: Sketch 42 (36781) - http://www.bohemiancoding.com/sketch -->
    <desc>Created with Sketch.</desc>
    <defs></defs>
    <g id="flowers" stroke="none" stroke-width="1" fill="none" fill-rule="evenodd" transform="translate(-126.000000, -757.000000)">
        <g id="Group" fill-rule="nonzero" fill="#000000">
            <path d="M17.7117264,23.8444924 L16.4090391,23.8444924 C16.0716612,23.8444924 15.7982899,24.0620086 15.7982899,24.3304536 C15.7982899,24.5988985 16.0716612,24.8164147 16.4090391,24.8164147 L17.7117264,24.8164147 C18.0491042,24.8164147 18.3224756,24.5988985 18.3224756,24.3304536 C18.3224756,24.0620086 18.0491042,23.8444924 17.7117264,23.8444924 Z" id="Shape"></path>
            <path d="M21.4822476,17.1092009 C21.1473127,17.0777106 20.8437296,17.2684017 20.8043974,17.5350324 L20.4211726,20.1268251 C20.381759,20.3933261 20.6213355,20.6348812 20.9563518,20.6661771 C20.9806189,20.6684449 21.0046417,20.6696112 21.0285016,20.6696112 C21.3338762,20.6696112 21.5977199,20.4876026 21.634202,20.2403456 L22.0174267,17.6485529 C22.0569218,17.3820518 21.8173453,17.1404968 21.4822476,17.1092009 Z" id="Shape"></path>
            <path d="M24.7977199,15.195486 C24.6818404,15.0917495 24.5157166,15.0323974 24.3413681,15.0323974 L24.1856678,15.0323974 L24.1856678,9.29805616 C24.1856678,4.17110151 18.9434853,0 12.5,0 C6.05651466,0 0.814332248,4.17110151 0.814332248,9.29805616 L0.814332248,15.0323974 L0.658631922,15.0323974 C0.484201954,15.0323974 0.318078176,15.0917495 0.20228013,15.195486 C0.0864006515,15.2991577 0.0316775244,15.4373002 0.0521172638,15.5751188 L0.945846906,21.6192441 C1.00521173,22.0210367 1.29609121,22.3606911 1.70464169,22.5581857 C1.5526873,22.7764147 1.46579805,23.0271058 1.46579805,23.2937365 C1.46579805,23.6939741 1.66115635,24.0583801 1.97964169,24.3304536 C1.66115635,24.602527 1.46579805,24.966933 1.46579805,25.3671706 C1.46579805,25.8010367 1.69543974,26.1927862 2.06254072,26.470432 C1.84462541,26.7229374 1.74592834,27.0312959 1.79144951,27.3388769 L1.98607492,28.6551836 C2.09942997,29.4218359 2.91653094,30 3.88664495,30 L21.113355,30 C22.0834691,30 22.90057,29.4218359 23.0139251,28.6551836 L23.2084691,27.3388769 C23.2539902,27.0312959 23.1552932,26.7230022 22.9373779,26.470432 C23.3045603,26.192851 23.534202,25.8010367 23.534202,25.3671706 C23.534202,24.966933 23.3388436,24.602527 23.0203583,24.3304536 C23.3388436,24.0583801 23.534202,23.6939741 23.534202,23.2937365 C23.534202,23.0271058 23.4473941,22.7764147 23.2954397,22.5582505 C23.7039902,22.3606911 23.9948697,22.0210367 24.0542345,21.6193089 L24.9478827,15.5751836 C24.9683225,15.4373002 24.9135993,15.2990929 24.7977199,15.195486 Z M2.03583062,9.29805616 C2.03583062,4.70701944 6.73004886,0.971922246 12.5,0.971922246 C18.2699511,0.971922246 22.9641694,4.70701944 22.9641694,9.29805616 L22.9641694,15.0323974 L19.0223941,15.0323974 C19.1094463,14.9198488 19.1846906,14.8006911 19.2434039,14.6747948 C20.2736156,14.8138445 21.3425081,14.4408855 21.8888436,13.687905 C22.4352606,12.9348596 22.3068404,12.0116631 21.6403094,11.3714903 C22.3068404,10.7312527 22.4352606,9.80805616 21.8888436,9.05507559 C21.3425081,8.30209503 20.2735342,7.92907127 19.2434039,8.06812095 C18.8798046,7.2887041 17.9391694,6.73866091 16.8464984,6.73866091 C16.2832248,6.73866091 15.7612378,6.88561555 15.3370521,7.13397408 C15.5849349,6.58781857 15.5404723,5.96403888 15.1504072,5.42656587 C14.6040717,4.67365011 13.5350163,4.30043197 12.5049674,4.43967603 C12.1412866,3.66019438 11.2006515,3.11015119 10.107899,3.11015119 C9.01514658,3.11015119 8.0745114,3.66019438 7.71091205,4.43967603 C6.68110749,4.30062635 5.61188925,4.67365011 5.06547231,5.42656587 C4.51913681,6.17954644 4.64747557,7.10274298 5.31400651,7.74298056 C4.64747557,8.38315335 4.51905537,9.30634989 5.06547231,10.0593952 C5.20651466,10.2537797 5.38778502,10.4274298 5.5985342,10.5739957 C5.58330619,10.6025054 5.56734528,10.6306911 5.55374593,10.6598488 C4.5235342,10.5206695 3.45464169,10.8938229 2.90830619,11.6468035 C2.36188925,12.399784 2.49022801,13.3230454 3.15692182,13.9632829 C2.83949511,14.2678834 2.63990228,14.6397408 2.58289902,15.0323326 L2.03583062,15.0323326 L2.03583062,9.29805616 L2.03583062,9.29805616 Z M5.94087948,12.6835853 C5.39454397,13.4365011 5.52288274,14.3597624 6.18941368,15 C6.1781759,15.0107559 6.16840391,15.0222246 6.15749186,15.0331749 C6.1509772,15.0329806 6.14470684,15.0323974 6.13811075,15.0323974 L3.82043974,15.0323974 C3.89584691,14.7659611 4.09861564,14.5260259 4.39837134,14.3698704 C4.57076547,14.2800648 4.67467427,14.1272138 4.67467427,13.9632829 C4.67467427,13.7993521 4.57084691,13.6464363 4.39837134,13.5566955 C3.80211726,13.2461339 3.61229642,12.6206695 3.96620521,12.1328294 C4.32011401,11.6449244 5.09576547,11.4630454 5.73208469,11.7186609 C5.91596091,11.7925918 6.13428339,11.7877322 6.31278502,11.7057667 C6.49120521,11.6238013 6.60570033,11.4757451 6.61718241,11.3121382 C6.65700326,10.7458963 7.24291531,10.3023758 7.95081433,10.3023758 C8.49666124,10.3023758 8.97923453,10.5696544 9.18314332,10.9608855 C8.92320847,11.1668683 8.71710098,11.4165227 8.58640065,11.6966307 C7.55602606,11.5574514 6.48721498,11.9306048 5.94087948,12.6835853 Z M6.55553746,7.33639309 C5.95928339,7.02583153 5.76938111,6.40043197 6.1232899,5.912527 C6.47728013,5.42475162 7.2531759,5.24287257 7.88916938,5.49842333 C8.07320847,5.57222462 8.29128664,5.56742981 8.46986971,5.48546436 C8.6482899,5.40349892 8.76278502,5.25544276 8.7742671,5.09183585 C8.81416938,4.52559395 9.4,4.08207343 10.107899,4.08207343 C10.815798,4.08207343 11.4017101,4.52559395 11.4415309,5.09183585 C11.4530945,5.25544276 11.5675081,5.40356371 11.7459283,5.48546436 C11.92443,5.5674946 12.142671,5.57222462 12.3266287,5.49842333 C12.9628664,5.24274298 13.7384365,5.42468683 14.0925081,5.912527 C14.4464984,6.40036717 14.2566775,7.02583153 13.660342,7.33639309 C13.4879479,7.4261987 13.3840391,7.57904968 13.3840391,7.74291577 C13.3840391,7.86796976 13.4447883,7.9862851 13.5498371,8.07537797 C12.8389251,8.18092873 12.1904723,8.52226782 11.8039088,9.05507559 C11.495684,9.47987041 11.4028502,9.9587041 11.4995928,10.4105184 C11.3324104,10.3830454 11.1600977,10.3671706 10.9831433,10.3671706 C10.7235342,10.3671706 10.4729642,10.3991145 10.2362378,10.4569114 C9.81083062,9.78155508 8.93387622,9.33045356 7.9507329,9.33045356 C7.33900651,9.33045356 6.77508143,9.50306695 6.33322476,9.79153348 C6.2526873,9.72712743 6.18224756,9.65455724 6.12337134,9.57343413 C5.76938111,9.08559395 5.95920195,8.46012959 6.55561889,8.14956803 C6.72801303,8.05976242 6.83192182,7.90691145 6.83192182,7.74298056 C6.83192182,7.57904968 6.72801303,7.42613391 6.55553746,7.33639309 L6.55553746,7.33639309 Z M7.43078176,14.5934125 C6.83452769,14.282851 6.64470684,13.6573866 6.99861564,13.1695464 C7.35260586,12.6817063 8.1281759,12.4996976 8.76449511,12.755378 C8.94837134,12.8293089 9.16669381,12.8244492 9.34519544,12.7424838 C9.52361564,12.6605184 9.63811075,12.5124622 9.64959283,12.3488553 C9.68941368,11.7826134 10.2753257,11.3390929 10.9832248,11.3390929 C11.6911238,11.3390929 12.2770358,11.7826134 12.3168567,12.3488553 C12.3284202,12.5124622 12.4428339,12.6605832 12.6212541,12.7424838 C12.7996743,12.824514 13.0180782,12.8293089 13.2019544,12.755378 C13.8379479,12.499892 14.6137622,12.6815767 14.9678339,13.1695464 C15.3218241,13.6573866 15.1320033,14.282851 14.5355863,14.5934125 C14.3631922,14.6832181 14.2592834,14.8360691 14.2592834,15 C14.2592834,15.1639309 14.3631107,15.3168467 14.5355863,15.4065875 C15.1319218,15.717149 15.3217427,16.3425486 14.9678339,16.8304536 C14.6139251,17.3182937 13.8381107,17.5002376 13.2019544,17.2445572 C13.0179153,17.1707559 12.7997557,17.175486 12.6212541,17.2575162 C12.4428339,17.3394816 12.3283388,17.4875378 12.3168567,17.6511447 C12.2770358,18.2173866 11.6911238,18.6609071 10.9832248,18.6609071 C10.2753257,18.6609071 9.68941368,18.2173866 9.64959283,17.6511447 C9.63802932,17.4875378 9.52361564,17.3394168 9.34519544,17.2575162 C9.25089577,17.2141685 9.14543974,17.1923974 9.03982085,17.1923974 C8.94560261,17.1923974 8.8512215,17.2097624 8.76449511,17.2445572 C8.1284202,17.5003672 7.3526873,17.3183585 6.99861564,16.8304536 C6.64462541,16.3426134 6.83444625,15.717149 7.43078176,15.4065875 C7.6031759,15.3167819 7.70708469,15.1639309 7.70708469,15 C7.70708469,14.8360691 7.60325733,14.6831533 7.43078176,14.5934125 L7.43078176,14.5934125 Z M15.9790717,14.7750324 C16.4431596,14.1804752 16.5045603,13.4180346 16.080456,12.7664579 C16.3151466,12.8483585 16.5741857,12.8941685 16.8464169,12.8941685 C17.5271173,12.8941685 18.1619707,12.6027862 18.5033388,12.1337365 C18.6723127,11.9014471 18.5726384,11.6041037 18.2807818,11.4696544 C17.9888436,11.3353348 17.615228,11.414514 17.4461726,11.6467387 C17.322557,11.8166955 17.0927524,11.9222462 16.8464984,11.9222462 C16.4648208,11.9222462 16.154316,11.6751836 16.154316,11.3714903 C16.154316,11.067797 16.4648208,10.8207343 16.8464984,10.8207343 C17.1838762,10.8207343 17.4572476,10.6032181 17.4572476,10.3347732 C17.4572476,10.0663283 17.1838762,9.8488121 16.8464984,9.8488121 C15.7912866,9.8488121 14.9328176,10.531879 14.9328176,11.3714903 C14.9328176,11.5685961 14.9806189,11.7568251 15.0666938,11.9298272 C14.570684,11.7084233 13.9890065,11.622311 13.4168567,11.6928078 C13.4359935,11.6755724 13.454316,11.6574298 13.4706026,11.6376674 C13.6553746,11.4131533 13.5763029,11.111987 13.2940554,10.9649028 C12.6978013,10.6543413 12.5079805,10.0288769 12.8618893,9.54103672 C13.2158795,9.05313175 13.9914495,8.8711879 14.6277687,9.12686825 C14.8115635,9.20079914 15.029886,9.19593952 15.2084691,9.11397408 C15.3868893,9.03200864 15.5013844,8.88395248 15.5128664,8.72034557 C15.5526873,8.15410367 16.1385993,7.71058315 16.8464984,7.71058315 C17.5543974,7.71058315 18.1403094,8.15410367 18.1801303,8.72034557 C18.1916938,8.88395248 18.3061075,9.03207343 18.4845277,9.11397408 C18.6629479,9.19600432 18.8813518,9.20079914 19.065228,9.12686825 C19.7012215,8.87144708 20.4770358,9.05306695 20.8311075,9.54103672 C21.1850977,10.0288769 20.9952769,10.6543413 20.3988599,10.9649028 C20.2264658,11.0547084 20.122557,11.2075594 20.122557,11.3714903 C20.122557,11.5354212 20.2263844,11.6883369 20.3988599,11.7780778 C20.9951954,12.0886393 21.1850163,12.7140389 20.8311075,13.2019438 C20.4771987,13.689784 19.7013844,13.8716631 19.065228,13.6160475 C18.8811889,13.5421814 18.6630293,13.547041 18.4845277,13.6290065 C18.3061075,13.7109719 18.1916124,13.8590281 18.1801303,14.022635 C18.1403094,14.5888769 17.5543974,15.0323974 16.8464984,15.0323974 C16.5264658,15.0323974 16.2192997,14.9393521 15.9790717,14.7750324 Z M22.8412052,21.5057235 C22.8188925,21.6568898 22.6576547,21.7709935 22.4662866,21.7709935 L21.6205212,21.7710583 L20.3178339,21.7710583 C19.980456,21.7710583 19.7070847,21.9885745 19.7070847,22.2570194 C19.7070847,22.5254644 19.980456,22.7429806 20.3178339,22.7429806 L21.6205212,22.7429806 C22.0021987,22.7429806 22.3127036,22.9900432 22.3127036,23.2937365 C22.3127036,23.5974298 22.0021987,23.8444924 21.6205212,23.8444924 L20.3177524,23.8444924 C19.9803746,23.8444924 19.7070033,24.0620086 19.7070033,24.3304536 C19.7070033,24.5988985 19.9803746,24.8164147 20.3177524,24.8164147 L21.6205212,24.8164147 C22.0021987,24.8164147 22.3127036,25.0634773 22.3127036,25.3671706 C22.3127036,25.6708639 22.0021987,25.9179266 21.6205212,25.9179266 L20.3177524,25.9179266 C19.9803746,25.9179266 19.7070033,26.1354428 19.7070033,26.4038877 C19.7070033,26.6723326 19.9803746,26.8898488 20.3177524,26.8898488 L21.6205212,26.8898488 C21.7679967,26.8898488 21.8605049,26.9530238 21.9025244,26.9906048 C21.9446254,27.0282505 22.0126221,27.1087905 21.9954397,27.2253564 L21.8008143,28.5415983 C21.759772,28.8189201 21.4642508,29.0280778 21.113355,29.0280778 L3.88664495,29.0280778 C3.53566775,29.0280778 3.24022801,28.8189201 3.19918567,28.5416631 L3.00456026,27.2253564 C2.98737785,27.1087905 3.05537459,27.0282505 3.09747557,26.9906048 C3.13957655,26.9530238 3.23200326,26.8898488 3.37947883,26.8898488 L17.7117264,26.8898488 C18.0491042,26.8898488 18.3224756,26.6723326 18.3224756,26.4038877 C18.3224756,26.1354428 18.0491042,25.9179266 17.7117264,25.9179266 L3.37947883,25.9179266 C2.9978013,25.9179266 2.68737785,25.6708639 2.68737785,25.3671706 C2.68737785,25.0634773 2.99788274,24.8164147 3.37947883,24.8164147 L13.8026873,24.8164147 C14.1400651,24.8164147 14.4134365,24.5988985 14.4134365,24.3304536 C14.4134365,24.0620086 14.1400651,23.8444924 13.8026873,23.8444924 L3.37947883,23.8444924 C2.9978013,23.8444924 2.68737785,23.5974298 2.68737785,23.2937365 C2.68737785,22.9900432 2.99788274,22.7429806 3.37947883,22.7429806 L3.37956026,22.7429806 L17.7118078,22.7429806 C18.0491857,22.7429806 18.322557,22.5254644 18.322557,22.2570194 C18.322557,21.9885745 18.0491857,21.7710583 17.7118078,21.7710583 L3.37956026,21.7710583 L2.53379479,21.7709935 C2.34234528,21.7709935 2.18118893,21.6568898 2.15887622,21.5057235 L1.34552117,16.0043197 L3.19332248,16.0043197 C3.19625407,16.0043844 3.19918567,16.0046436 3.2021987,16.0046436 C3.20374593,16.0046436 3.20537459,16.0043197 3.20700326,16.0043197 L5.62858306,16.0043197 C5.54674267,16.4433045 5.64250814,16.905162 5.94087948,17.3164147 C6.48721498,18.0693305 7.55618893,18.4425486 8.58631922,18.3033045 C8.94991857,19.0827862 9.89055375,19.6328294 10.9833062,19.6328294 C12.0760586,19.6328294 13.0166938,19.0827862 13.3802932,18.3033045 C14.4105049,18.442419 15.4793974,18.0693952 16.0257329,17.3164147 C16.3241857,16.905162 16.4199511,16.4433045 16.3380293,16.0043197 L23.6545603,16.0043197 L22.8412052,21.5057235 Z" id="Shape"></path>
            <path d="M10.9833062,16.5226782 C11.6640065,16.5226782 12.2988599,16.2312959 12.640228,15.7622462 C12.809202,15.5299568 12.7095277,15.2326134 12.417671,15.0981641 C12.1256515,14.9637797 11.7521173,15.0430238 11.5830619,15.2752484 C11.4594463,15.4452052 11.2296417,15.5507559 10.9833876,15.5507559 C10.6017101,15.5507559 10.2912052,15.3036933 10.2912052,15 C10.2912052,14.6963067 10.6017101,14.4492441 10.9833876,14.4492441 C11.3207655,14.4492441 11.5941368,14.2317279 11.5941368,13.9632829 C11.5941368,13.694838 11.3207655,13.4773218 10.9833876,13.4773218 C9.9281759,13.4773218 9.06970684,14.1603888 9.06970684,15 C9.06970684,15.8396112 9.92809446,16.5226782 10.9833062,16.5226782 L10.9833062,16.5226782 Z" id="Shape"></path>
            <path d="M10.107899,9.26565875 C10.7885179,9.26565875 11.4234528,8.97427646 11.7648208,8.50529158 C11.9338762,8.27300216 11.8342834,7.97565875 11.5424267,7.8412095 C11.2506515,7.70676026 10.8769544,7.78593952 10.7078176,8.01816415 C10.5840391,8.18812095 10.3542345,8.2937365 10.1079805,8.2937365 C9.72630293,8.2937365 9.41579805,8.04667387 9.41579805,7.74298056 C9.41579805,7.43928726 9.72630293,7.19222462 10.1079805,7.19222462 C10.4453583,7.19222462 10.7187296,6.97470842 10.7187296,6.7062635 C10.7187296,6.43781857 10.4453583,6.22030238 10.1079805,6.22030238 C9.05276873,6.22030238 8.19429967,6.90336933 8.19429967,7.74298056 C8.19429967,8.58259179 9.0526873,9.26565875 10.107899,9.26565875 L10.107899,9.26565875 Z" id="Shape"></path>
        </g>
    </g>
</svg>
