
<svg width="24px" height="24px" viewBox="696 575 24 24" version="1.1" xmlns="http://www.w3.org/2000/svg" xmlns:xlink="http://www.w3.org/1999/xlink">
    <!-- Generator: Sketch 42 (36781) - http://www.bohemiancoding.com/sketch -->
    <desc>Created with Sketch.</desc>
    <defs></defs>
    <g id="like" stroke="none" stroke-width="1" fill="none" fill-rule="evenodd" transform="translate(696.000000, 575.000000)">
        <g id="Capa_1" fill-rule="nonzero" fill="#AE2525">
            <path d="M22.9621241,6.91345129 C22.6263913,3.19433852 20.0108604,0.496045189 16.7375764,0.496045189 C14.5568614,0.496045189 12.5601582,1.67713283 11.4366255,3.57007843 C10.3232666,1.65264741 8.40839543,0.4956 6.26262503,0.4956 C2.9897833,0.4956 0.373810063,3.19389333 0.0385196145,6.9130061 C0.0119794734,7.07728102 -0.0968351049,7.94183895 0.234031987,9.35175398 C0.710869854,11.3853794 1.81228571,13.2351417 3.41840658,14.699815 L11.4313175,22.0182846 L19.5817948,14.7002602 C21.1879157,13.2351417 22.2893315,11.3858246 22.7661694,9.35175398 C23.0970365,7.94228414 22.9882219,7.07772621 22.9621241,6.91345129 Z M9.53786538,5.3424 C6.90823077,5.3424 4.76863462,7.4958 4.76863462,10.1424 C4.76863462,10.4742 4.50215385,10.7424 4.17248077,10.7424 C3.84280769,10.7424 3.57632692,10.4742 3.57632692,10.1424 C3.57632692,6.834 6.25067308,4.1424 9.53786538,4.1424 C9.86753846,4.1424 10.1340192,4.4106 10.1340192,4.7424 C10.1340192,5.0742 9.86694231,5.3424 9.53786538,5.3424 Z" id="Shape"></path>
        </g>
    </g>
</svg>
