<svg width="49px" height="49px" viewBox="143 325 49 49" version="1.1" xmlns="http://www.w3.org/2000/svg" xmlns:xlink="http://www.w3.org/1999/xlink">
    <!-- Generator: Sketch 42 (36781) - http://www.bohemiancoding.com/sketch -->
    <desc>Created with Sketch.</desc>
    <defs></defs>
    <g id="play-button" stroke="none" stroke-width="1" fill="none" fill-rule="evenodd" transform="translate(143.000000, 325.000000)">
        <g id="Capa_1" fill-rule="nonzero">
            <g id="Group">
                <path d="M45.7572244,13.133761 C44.0611677,9.84432446 41.5877243,6.93963843 38.6046753,4.7336476 C38.1668614,4.41001028 37.5498148,4.50250155 37.2260132,4.94015121 C36.9022116,5.37780086 36.9948672,5.99501174 37.4325168,6.31881334 C40.1739056,8.34606438 42.4465953,11.0150044 44.0051472,14.037317 C45.6381193,17.2041986 46.4661052,20.6296614 46.4661052,24.2189143 C46.4661052,36.486083 36.4859187,46.4662694 24.21875,46.4662694 C11.9515813,46.4662694 1.97139485,36.486083 1.97139485,24.21875 C1.97139485,11.951417 11.9515813,1.97139485 24.21875,1.97139485 C24.7630193,1.97139485 25.2044474,1.52996669 25.2044474,0.985697424 C25.2044474,0.441428163 24.7630193,0 24.21875,0 C10.8645213,0 0,10.8645213 0,24.21875 C0,37.5729787 10.8645213,48.4375 24.21875,48.4375 C37.5729787,48.4375 48.4375,37.5729787 48.4375,24.21875 C48.4375,20.3673016 47.5107801,16.5342529 45.7572244,13.133761 Z" id="Shape" fill="#FFFFFF"></path>
                <path d="M18.4985986,13.1288068 C18.1904039,13.3040967 18,13.6313482 18,13.9857064 L18,35.6174935 C18,36.1619271 18.4414282,36.603191 18.9856974,36.603191 C19.5299667,36.603191 19.9713948,36.1619271 19.9713948,35.6174935 L19.9713948,15.7197125 L34.5651381,24.4074853 L23.8335216,31.3216599 C23.3759938,31.6165477 23.2439103,32.2265301 23.5387981,32.684058 C23.8338502,33.1417502 24.4436683,33.2738336 24.9013605,32.9787815 L36.9704041,25.2027788 C37.257242,25.0179606 37.4280962,24.6979375 37.4220178,24.3567219 C37.4159393,24.0155063 37.2339138,23.7017259 36.9406689,23.5270932 L19.4898817,13.1386638 C19.1849726,12.9574597 18.8067933,12.9535169 18.4985986,13.1288068 Z" id="Shape" fill="#B7FFD4"></path>
            </g>
        </g>
    </g>
</svg>
