<!DOCTYPE svg>
<svg version="1.0" xmlns="http://www.w3.org/2000/svg" width="554px" height="567px" viewBox="0 0 5540 5670" preserveAspectRatio="xMidYMid meet">

<!-- this part was coded by Remi ;) -->
<defs>
    <linearGradient id="grad3" x1="0%" y1="0%" x2="100%" y2="0%">
      <stop offset="0%" style="stop-color:rgb(230,132,174);stop-opacity:1" />
      <stop offset="50%" style="stop-color:rgb(121,203,202);stop-opacity:1" />
      <stop offset="100%" style="stop-color:rgb(119,161,211);stop-opacity:1" />
    </linearGradient>
  </defs>

<g id="layer1" fill="url(#grad3)" stroke="none" transform="scale(0.1)">

<!-- until here this was coded by Remi -->

 <path d="M2590 5663 c-340 -19 -464 -38 -686 -104 -832 -245 -1516 -869 -1837 -1674 -79 -200 -87 -294 -28 -347 37 -33 69 -42 117 -34 62 12 89 49 139 189 233 650 702 1168 1321 1458 774 362 1664 318 2402 -120 419 -248 742 -595 967 -1036 679 -1333 68 -2975 -1315 -3530 -320 -129 -629 -188 -975 -187 -799 1 -1551 377 -2037 1017 -130 172 -273 435 -348 640 -24 66 -52 132 -63 148 -25 37 -67 57 -118 57 -35 0 -47 -6 -82 -40 l-40 -40 6 -78 c13 -175 212 -575 425 -857 293 -386 681 -692 1124 -888 214 -95 452 -167 668 -201 212 -34 605 -39 880 -11 88 9 245 43 380 82 483 139 921 403 1264 764 396 417 664 948 750 1489 34 212 39 605 11 880 -9 88 -43 245 -82 380 -139 483 -403 921 -764 1264 -417 396 -948 664 -1489 750 -87 14 -455 39 -511 34 -13 -1 -49 -3 -79 -5z"/>

 <path d="M1979 4061 l-39 -39 0 -316 c0 -351 1 -356 63 -395 65 -40 158 -16 192 49 12 22 15 68 15 196 0 145 2 165 15 160 20 -7 1477 -833 1499 -849 14 -10 -95 -78 -746 -460 l-763 -448 -5 181 -5 180 -38 37 c-34 35 -42 38 -93 38 -52 0 -58 -2 -95 -42 l-39 -42 0 -327 0 -326 39 -39 c38 -38 57 -45 121 -39 14 1 428 238 920 527 1164 683 1107 649 1125 683 31 60 13 150 -37 182 -13 8 -465 265 -1005 571 -946 537 -984 557 -1034 557 -46 0 -55 -4 -90 -39z"/>
 </g>

</svg>
