
<svg width="31px" height="30px" viewBox="-458 -941 31 30" version="1.1" xmlns="http://www.w3.org/2000/svg" xmlns:xlink="http://www.w3.org/1999/xlink">
    <!-- Generator: Sketch 42 (36781) - http://www.bohemiancoding.com/sketch -->
    <desc>Created with Sketch.</desc>
    <defs></defs>
    <g id="glasses" stroke="none" stroke-width="1" fill="none" fill-rule="evenodd" transform="translate(-458.000000, -941.000000)">
        <g id="Group" fill-rule="nonzero" fill="#000000">
            <path d="M29.1523542,3.36097923 L27.2814687,0.276498516 C27.1096976,-0.00676557864 26.8032829,-0.0451335312 26.597041,0.191038576 C26.3908639,0.427121662 26.363067,0.84810089 26.534838,1.13136499 L28.4057235,4.2158457 C28.7979914,4.8625816 29.0140173,5.68228487 29.0140173,6.52397626 L29.0140173,17.8404748 L28.1581425,17.8404748 C27.6258531,16.165727 26.4093305,14.9918101 24.9964795,14.9918101 C24.078013,14.9918101 23.2133909,15.4828487 22.5617495,16.3750148 C22.4015767,16.5948071 22.1409719,16.5947181 21.9804104,16.3745697 C21.3289633,15.4828487 20.4644708,14.9918101 19.5460691,14.9918101 C18.1283585,14.9918101 16.9081425,16.1735608 16.3787689,17.8574777 C16.010216,17.4113947 15.5273002,17.1449555 15.0041469,17.1449555 C14.485594,17.1449555 14.0037797,17.4105935 13.6347084,17.8547181 C13.1048812,16.1722255 11.8852484,14.9917211 10.4683153,14.9917211 C9.54984881,14.9917211 8.68529158,15.4827596 8.03345572,16.3750148 C7.87341253,16.5945401 7.61293737,16.5947181 7.45224622,16.3744807 C6.80079914,15.4827596 5.9363067,14.9917211 5.01784017,14.9917211 C3.6049892,14.9917211 2.38840173,16.165638 1.85617711,17.8403858 L0.971922246,17.8403858 L0.971922246,6.52388724 C0.971922246,5.68210682 1.18794816,4.86240356 1.58015119,4.21575668 L3.45110151,1.13127596 C3.62287257,0.848011869 3.59507559,0.427032641 3.38889849,0.190949555 C3.18278618,-0.0449554896 2.87637149,-0.00676557864 2.70447084,0.276409496 L0.833520518,3.36089021 C0.295982721,4.24709199 2.30197431e-16,5.3704451 2.30197431e-16,6.52388724 L2.30197431e-16,19.9323739 C2.30197431e-16,21.085905 0.683066955,22.024362 1.52267819,22.024362 L1.91598272,22.024362 C2.19544276,23.001543 2.67971922,24.154095 3.49367171,25.457092 C4.60257019,27.2322552 6.07010799,28.8407715 7.51989201,29.8699407 C7.58987041,29.9196142 7.66645788,29.944451 7.74298056,29.944451 C7.81950324,29.944451 7.89609071,29.9196142 7.96606911,29.8699407 C9.41585313,28.8406825 10.8833261,27.2322552 11.9922894,25.457092 C13.5829374,22.9108309 13.9167603,20.9370623 13.9167603,19.7296736 C13.9167603,19.7256677 13.9165659,19.7216617 13.9165659,19.7176558 C13.9172786,19.7132047 13.9183153,19.7090208 13.9189633,19.7045697 C14.0203024,18.9951632 14.4766523,18.4802671 15.0040821,18.4802671 C15.5412959,18.4802671 15.9992009,19.0065579 16.0928942,19.731632 C16.0941901,19.7416914 16.0961339,19.7513056 16.097689,19.7611869 C16.1033909,20.9712463 16.4448596,22.9325519 18.0218359,25.457092 C19.1307343,27.2322552 20.5982721,28.8406825 22.0480562,29.8699407 C22.1180346,29.9196142 22.194622,29.944451 22.2711447,29.944451 C22.3476674,29.944451 22.4242549,29.9196142 22.4942333,29.8699407 C23.9440173,28.8406825 25.4114903,27.2322552 26.5204536,25.457092 C27.334406,24.154184 27.8187473,23.001543 28.0981425,22.024362 L28.4631965,22.024362 C29.3028078,22.024362 29.9858747,21.085905 29.9858747,19.9323739 L29.9858747,6.52388724 C29.9858747,5.3704451 29.689892,4.24718101 29.1523542,3.36097923 L29.1523542,3.36097923 Z M1.52267819,20.6890504 C1.21898488,20.6890504 0.971922246,20.3496142 0.971922246,19.9323739 L0.971922246,19.1756973 L1.59356371,19.1756973 C1.57807775,19.3575668 1.56920086,19.5421958 1.56920086,19.7296736 C1.56920086,20.0091098 1.587473,20.3300297 1.63464363,20.6890504 L1.52267819,20.6890504 Z M7.74298056,28.5210089 C4.62136069,26.1875074 2.54112311,22.1370623 2.54112311,19.7295846 C2.54112311,17.8533828 3.65209503,16.3269436 5.01777538,16.3269436 C5.67732181,16.3269436 6.29825054,16.6797329 6.76587473,17.3197923 C7.30477322,18.0589318 8.18144708,18.0589318 8.71969762,17.3202374 C9.18777538,16.6796439 9.8087041,16.3268546 10.4681857,16.3268546 C11.8338013,16.3268546 12.944838,17.8532047 12.944838,19.7294955 C12.944838,22.1370623 10.8646004,26.1875074 7.74298056,28.5210089 L7.74298056,28.5210089 Z M22.2711447,28.5210089 C19.1495896,26.1875074 17.0693521,22.1370623 17.0693521,19.7295846 C17.0693521,17.8533828 18.180324,16.3269436 19.5460043,16.3269436 C20.205486,16.3269436 20.8264147,16.6797329 21.2941037,17.3197923 C21.8328726,18.0588427 22.709676,18.0588427 23.2480562,17.3202374 C23.7160043,16.6796439 24.336933,16.3268546 24.9964147,16.3268546 C26.3620302,16.3268546 27.473067,17.8532047 27.473067,19.7294955 C27.4730022,22.1370623 25.3927646,26.1875074 22.2711447,28.5210089 Z M28.4631965,20.6890504 L28.3794816,20.6890504 C28.4266523,20.3299407 28.4449244,20.0090208 28.4449244,19.7296736 C28.4449244,19.5421958 28.4360475,19.3575668 28.4205616,19.1756973 L29.0139525,19.1756973 L29.0139525,19.9323739 C29.0139525,20.3496142 28.7668898,20.6890504 28.4631965,20.6890504 L28.4631965,20.6890504 Z" id="Shape"></path>
            <path d="M11.1031749,21.0778042 C10.8730238,20.8882789 10.574514,20.9907418 10.4365011,21.3070326 C9.81155508,22.7386647 8.67609071,24.3134421 7.47311015,25.4169436 C7.2499568,25.6216914 7.18982721,26.0362611 7.33885529,26.3429377 C7.4324838,26.5357567 7.58650108,26.639911 7.74343413,26.639911 C7.83615551,26.639911 7.92991361,26.6035015 8.01285097,26.5273887 C9.34775378,25.302908 10.565378,23.6080415 11.2700216,21.9937389 C11.4080346,21.6775371 11.3333261,21.2674184 11.1031749,21.0778042 L11.1031749,21.0778042 Z" id="Shape"></path>
            <path d="M10.4682505,17.8403858 C10.1998056,17.8403858 9.98228942,18.1393175 9.98228942,18.5080415 C9.98228942,18.8767656 10.1998056,19.1756973 10.4682505,19.1756973 C10.6251188,19.1756973 10.7690929,19.302908 10.8349892,19.4997329 C10.9169546,19.744362 11.0928078,19.8884866 11.2767603,19.8884866 C11.34473,19.8884866 11.4137365,19.8688131 11.479568,19.8272404 C11.7233909,19.6731454 11.830108,19.2765579 11.7179482,18.9416617 C11.4938877,18.2725816 11.0033261,17.8403858 10.4682505,17.8403858 L10.4682505,17.8403858 Z" id="Shape"></path>
            <path d="M25.6172138,21.0778042 C25.3870626,20.8882789 25.0885529,20.9907418 24.95054,21.3070326 C24.325594,22.7386647 23.1901296,24.3134421 21.987149,25.4169436 C21.7639957,25.6216914 21.7038661,26.0362611 21.8528942,26.3429377 C21.9465227,26.5357567 22.10054,26.639911 22.257473,26.639911 C22.3501944,26.639911 22.4439525,26.6035015 22.5268898,26.5273887 C23.8617927,25.302908 25.0794168,23.6080415 25.7840605,21.9937389 C25.9220734,21.6775371 25.847365,21.2674184 25.6172138,21.0778042 Z" id="Shape"></path>
            <path d="M24.9822894,17.8403858 C24.7138445,17.8403858 24.4963283,18.1393175 24.4963283,18.5080415 C24.4963283,18.8767656 24.7138445,19.1756973 24.9822894,19.1756973 C25.1391577,19.1756973 25.2831317,19.302908 25.3490281,19.4997329 C25.4309935,19.744362 25.6068467,19.8884866 25.7907991,19.8884866 C25.8587689,19.8884866 25.9277754,19.8688131 25.9936069,19.8272404 C26.2374298,19.6731454 26.3441469,19.2765579 26.231987,18.9416617 C26.0079266,18.2725816 25.517365,17.8403858 24.9822894,17.8403858 L24.9822894,17.8403858 Z" id="Shape"></path>
        </g>
    </g>
</svg>
