
<svg width="31px" height="30px" viewBox="942 362 31 30" version="1.1" xmlns="http://www.w3.org/2000/svg" xmlns:xlink="http://www.w3.org/1999/xlink">
    <!-- Generator: Sketch 42 (36781) - http://www.bohemiancoding.com/sketch -->
    <desc>Created with Sketch.</desc>
    <defs></defs>
    <g id="eye-mask-(1)" stroke="none" stroke-width="1" fill="none" fill-rule="evenodd" transform="translate(942.000000, 362.000000)">
        <g id="Layer_1" fill-rule="nonzero" fill="#000000">
            <path d="M14.980117,14.6019574 C13.3938012,14.6019574 12.1032164,16.010617 12.1032164,17.742 C12.1032164,18.0397021 12.324269,18.2811064 12.5971345,18.2811064 C12.8699415,18.2811064 13.0910526,18.0397021 13.0910526,17.742 C13.0910526,16.6050638 13.9384795,15.6801064 14.980117,15.6801064 C16.0217544,15.6801064 16.8691813,16.6050638 16.8691813,17.742 C16.8691813,18.0397021 17.0902339,18.2811064 17.3630994,18.2811064 C17.6359064,18.2811064 17.8570175,18.0397021 17.8570175,17.742 C17.8570175,16.0105532 16.5664327,14.6019574 14.980117,14.6019574 Z" id="Shape"></path>
            <ellipse id="Oval" cx="14.9805848" cy="17.741617" rx="0.493918129" ry="0.539106383"></ellipse>
            <ellipse id="Oval" cx="14.9707018" cy="22.8896809" rx="0.493918129" ry="0.539106383"></ellipse>
            <ellipse id="Oval" cx="13.147193" cy="21.8862128" rx="0.493918129" ry="0.539106383"></ellipse>
            <ellipse id="Oval" cx="11.2492398" cy="20.8821064" rx="0.493918129" ry="0.539106383"></ellipse>
            <ellipse id="Oval" cx="9.28479532" cy="20.8080638" rx="0.493918129" ry="0.539106383"></ellipse>
            <ellipse id="Oval" cx="7.4928655" cy="21.1250426" rx="0.493918129" ry="0.539106383"></ellipse>
            <ellipse id="Oval" cx="5.70690058" cy="21.6641489" rx="0.493918129" ry="0.539106383"></ellipse>
            <ellipse id="Oval" cx="16.954269" cy="21.8862128" rx="0.493918129" ry="0.539106383"></ellipse>
            <ellipse id="Oval" cx="18.8521637" cy="20.8821064" rx="0.493918129" ry="0.539106383"></ellipse>
            <ellipse id="Oval" cx="20.8166667" cy="20.8080638" rx="0.493918129" ry="0.539106383"></ellipse>
            <ellipse id="Oval" cx="22.608538" cy="21.1250426" rx="0.493918129" ry="0.539106383"></ellipse>
            <ellipse id="Oval" cx="24.3945614" cy="21.6641489" rx="0.493918129" ry="0.539106383"></ellipse>
            <g id="Group">
                <path d="M29.2598246,17.7003191 C28.8247953,17.4658723 28.3204678,17.5275319 27.9438596,17.8611702 C27.3409357,18.3955532 26.679883,18.7846596 25.9790643,19.017766 C25.0192398,19.3371064 24.2323392,19.2898723 22.9284211,19.2115532 C21.7663743,19.1418511 21.0384795,18.9728936 20.4535088,18.8371915 C20.3159649,18.8052766 20.1823392,18.7744468 20.0494152,18.7461702 L20.105848,18.1872128 C20.1064327,18.1810213 20.1070175,18.1748298 20.1073684,18.1686383 C20.117076,18.0279574 20.1220468,17.8843404 20.1220468,17.7418085 C20.1220468,17.4008298 20.0924561,17.0674468 20.0388889,16.7430638 C21.0490058,15.962234 21.9287719,15.0072128 22.6566667,13.8989362 C24.1750292,11.5868936 24.9067251,8.7533617 24.717193,5.91995745 C24.7065497,5.76038298 24.631462,5.6142766 24.5123392,5.52108511 C24.3931579,5.42782979 24.2422807,5.39719149 24.1004094,5.43740426 C22.9801754,5.75495745 21.9271345,6.25244681 20.9589474,6.91889362 C20.8353801,5.65123404 20.5307602,4.40374468 20.047076,3.22729787 C19.987076,3.08131915 19.8707018,2.97197872 19.7295906,2.92882979 C19.5884795,2.88568085 19.4371345,2.91319149 19.3163743,3.00395745 C18.6604094,3.49704255 18.0583626,4.06391489 17.515848,4.69346809 C17.0918129,3.06970213 16.361345,1.54678723 15.3601754,0.235531915 C15.2663158,0.112723404 15.1273099,0.0416170213 14.9807018,0.0416170213 C14.8340936,0.0416170213 14.6950877,0.112723404 14.6012281,0.235531915 C13.5998246,1.54697872 12.8692398,3.0702766 12.4452632,4.6943617 C11.9025731,4.06442553 11.3002339,3.49729787 10.6439181,3.00389362 C10.5231579,2.91319149 10.371462,2.88555319 10.2307018,2.92876596 C10.0895322,2.97191489 9.97321637,3.08119149 9.91321637,3.22723404 C9.42959064,4.40368085 9.1248538,5.65117021 9.00134503,6.91882979 C8.03315789,6.25225532 6.98011696,5.75489362 5.85988304,5.43734043 C5.71812865,5.39712766 5.56707602,5.42782979 5.44795322,5.52102128 C5.32877193,5.61414894 5.25374269,5.76038298 5.24309942,5.91989362 C5.05356725,8.75317021 5.78526316,11.5868298 7.30362573,13.8988723 C8.03152047,15.0072128 8.91128655,15.9621702 9.92140351,16.743 C9.86777778,17.067383 9.83824561,17.400766 9.83824561,17.7417447 C9.83824561,17.8842766 9.84315789,18.0278298 9.85292398,18.1685106 C9.85345029,18.1758511 9.85409357,18.1831915 9.8548538,18.1905319 L9.91385965,18.7414468 C9.77380117,18.7709362 9.63304094,18.8034255 9.48795322,18.8370638 C8.90304094,18.972766 8.1751462,19.1417234 7.01304094,19.2114255 C5.70923977,19.2896809 4.92222222,19.3369787 3.96239766,19.0176383 C3.26157895,18.7844681 2.60052632,18.3953617 1.99754386,17.8609787 C1.62093567,17.5273404 1.11672515,17.465617 0.681637427,17.7001277 C0.247894737,17.9338085 -0.0130409357,18.4066596 0.000584795322,18.9338936 C0.00479532164,19.0980638 0.0538596491,19.6107447 0.0663157895,19.7504043 C0.178362573,21.0024894 0.440701754,23.9347021 2.45204678,26.4979787 C3.1,27.3236809 4.61730994,29.2574043 7.13672515,29.8005319 C10.0921637,30.4376809 13.1995906,28.9617447 13.8821053,28.2932553 L13.898538,28.2769149 C14.1955556,27.9813191 14.4216959,27.8977021 14.5592398,27.8795106 C14.6179532,27.8717234 15.3491228,27.8730638 15.3966667,27.8794468 C15.5303509,27.897383 15.7502924,27.9801702 16.0388304,28.2722553 L16.0569591,28.2905106 C16.6156725,28.8465319 18.8369591,29.9582553 21.2754971,29.9582553 C21.7802924,29.9582553 22.2944444,29.9105745 22.8050877,29.8005319 C25.3245614,29.2574043 26.8418129,27.3236809 27.4897661,26.4979787 C29.5011111,23.9346383 29.7633918,21.0025532 29.8754971,19.7504043 C29.8879532,19.6107447 29.9370175,19.0980638 29.9412281,18.9340213 C29.9545614,18.4068511 29.6935673,17.9340638 29.2598246,17.7003191 Z M20.5682456,11.6528298 C20.7638596,10.9324468 20.8949123,10.1906809 20.965731,9.44355319 C21.0032749,9.04787234 21.0236842,8.65021277 21.0252047,8.2523617 C21.0253801,8.20397872 21.015731,8.17429787 21.0540351,8.14480851 C21.0860819,8.12017021 21.6325146,7.7297234 21.7740936,7.63934043 C22.4009942,7.23925532 22.7797661,7.0157234 23.7580117,6.66938298 C23.7726901,8.0093617 23.5619883,9.35055319 23.1409357,10.6094043 C22.7174854,11.8755957 22.0822807,13.053383 21.2748538,14.0731277 C20.8174269,14.6508511 20.3053216,15.176617 19.748655,15.6391277 C19.6865497,15.4710638 19.6154971,15.3058723 19.5388304,15.1451489 C19.5012865,15.0664468 19.345731,14.7745532 19.3059649,14.7072128 C19.311345,14.6975106 19.5289474,14.3031064 19.5697076,14.2247872 C19.6560819,14.0588936 19.7385965,13.8907021 19.8177193,13.7204681 C20.1254971,13.058234 20.3750292,12.3645319 20.5682456,11.6528298 Z M10.8393567,4.51097872 C10.8423567,4.51297872 10.8419967,4.51277872 10.8393567,4.51097872 L10.8393567,4.51097872 Z M10.6658749,4.35446596 C10.6506349,4.34456596 10.6365949,4.33536596 10.6232749,4.32676596 C10.6380349,4.33636596 10.6519549,4.34546596 10.6658749,4.35446596 Z M10.8266145,4.49218936 C10.8144945,4.48428936 10.8014145,4.47578936 10.7871345,4.46648936 C10.8018945,4.47608936 10.8150945,4.48468936 10.8266145,4.49218936 Z M10.7977745,4.4532766 C10.7615345,4.4296766 10.7238545,4.4051766 10.6871345,4.3812766 C10.7286545,4.4082766 10.7656145,4.4322766 10.7977745,4.4532766 Z M10.6766566,4.36773617 C10.6688566,4.36273617 10.6614166,4.35783617 10.6539766,4.35293617 C10.6615366,4.35783617 10.6693366,4.36293617 10.6766566,4.36773617 Z M10.0621053,6.39619149 C10.1707018,5.67778723 10.3442105,4.971 10.5797661,4.28968085 C10.5897661,4.29823404 10.598655,4.30576596 10.6079532,4.31374468 C10.5907602,4.29906383 10.5797661,4.28968085 10.5797661,4.28968085 C10.9724561,4.62446809 11.3426316,4.99078723 11.6860819,5.38493617 C11.7732749,5.48502128 12.1657895,5.94855319 12.1717544,6.00970213 C12.1778947,6.07225532 12.0784211,6.73397872 12.0659064,6.87874468 C12.0150292,7.46808511 12.0030994,8.06131915 12.0305263,8.65251064 C12.0444444,8.95161702 12.0649123,9.25206383 12.1032164,9.54861702 C12.1407602,9.83917021 12.3747953,10.070234 12.6494152,10.0364681 C13.0276608,9.98993617 13.1022807,9.61289362 13.0672515,9.26744681 C13.009883,8.70146809 12.9918713,8.13057447 13.0140351,7.56165957 C13.054269,6.52825532 13.2279532,5.50168085 13.5275439,4.5203617 C13.8253216,3.54497872 14.2472515,2.61510638 14.7785965,1.76617021 C14.844269,1.66123404 14.9116374,1.55751064 14.9805848,1.45512766 C15.5434503,2.29104255 15.9972515,3.21344681 16.3260819,4.1867234 C16.6563743,5.16414894 16.8615205,6.1932766 16.9295322,7.23255319 C16.9662573,7.79495745 16.9645029,8.35953191 16.9238596,8.92155319 C16.8946199,9.32565957 16.7875439,9.96319149 17.3430409,9.99714894 C17.8667251,10.0291915 17.8827485,9.37646809 17.9108187,8.97140426 C17.9490058,8.42106383 17.9534503,7.86925532 17.9247953,7.31834043 C17.9096491,7.02695745 17.8842105,6.73595745 17.8497661,6.44648936 C17.832924,6.3047234 17.7959649,6.15631915 17.7911111,6.01391489 C17.7896491,5.97223404 17.9759064,5.742 18.0177778,5.69017021 C18.35,5.27929787 18.7102339,4.89548936 19.0944444,4.54270213 C19.1884211,4.45646809 19.2838012,4.37208511 19.3805263,4.28955319 C19.7966667,5.49306383 20.0180117,6.77502128 20.0338596,8.06119149 C20.0498246,9.35253191 19.8595322,10.6494894 19.4677193,11.8685106 C19.2511696,12.5421064 18.9788889,13.1926596 18.6494152,13.8095106 C17.904269,12.9797872 16.9335088,12.4297021 15.8887135,12.2188085 C14.8356725,12.0062553 13.7250292,12.1770638 12.7600585,12.6798511 C12.221345,12.9605106 11.7289474,13.3442553 11.3111111,13.8095106 C10.7207018,12.7040426 10.3039766,11.483617 10.0940351,10.2244468 C9.88350877,8.96125532 9.8702924,7.6632766 10.0621053,6.39619149 Z M11.3711696,15.4988936 C11.7261988,14.8208298 12.2419298,14.2469362 12.8561404,13.8464681 C13.5697076,13.3810851 14.4074854,13.1621489 15.2367836,13.2178085 C16.0339766,13.2712979 16.8083041,13.5790213 17.4496491,14.0982128 C18.0249708,14.5639149 18.4868421,15.1914255 18.7778947,15.9059362 C19.0764327,16.6388936 19.1867251,17.4476809 19.1063158,18.2438936 C19.0949708,18.3561064 19.0730409,18.6079149 19.0690643,18.6132766 C19.0595322,18.6260426 18.7631579,18.6160851 18.66,18.6222128 C17.9794152,18.6621702 17.3092982,18.8433191 16.6800585,19.1260213 C16.0715205,19.3994681 15.5384211,19.8491489 14.8485965,19.8007021 C14.218538,19.7564043 13.6795322,19.296766 13.1031579,19.056383 C12.4708772,18.7926383 11.7961404,18.6312766 11.1182456,18.6157021 C11.0694737,18.6145532 10.9047953,18.6239362 10.8942105,18.6100851 C10.8811111,18.5926596 10.8457895,18.1573404 10.837193,18.0769787 C10.7910526,17.3887021 10.8210526,17.8071702 10.8333333,18 C10.7887135,17.130766 10.9751462,16.2552766 11.3711696,15.4988936 Z M9.89684211,15.366 C9.03894737,14.5921277 8.29894737,13.6635957 7.71520468,12.629234 C7.07298246,11.4912128 6.62163743,10.227383 6.38807018,8.91542553 C6.25649123,8.17614894 6.19385965,7.42231915 6.20204678,6.66931915 C6.81853801,6.88755319 7.41578947,7.17006383 7.98269006,7.51289362 C8.26292398,7.68229787 8.53561404,7.86638298 8.79982456,8.06412766 C8.83216374,8.08831915 8.92707602,8.157 8.9348538,8.1953617 C8.9380117,8.21080851 8.93701754,8.4606383 8.94,8.56480851 C8.94567251,8.7636383 8.95596491,8.96221277 8.9705848,9.16046809 C9.08087719,10.6541489 9.44,12.1201277 10.0306433,13.473 C10.1935673,13.8462128 10.6374854,14.6521915 10.6460819,14.6926596 C10.6539766,14.7301277 10.4978947,14.9885106 10.4554971,15.0745532 C10.3652632,15.2574894 10.2827485,15.4463617 10.2115205,15.6391277 C9.83339181,15.3251489 9.81327485,15.3009574 9.89684211,15.366 Z M28.8921053,19.6457234 C28.8591228,20.0143404 28.8467251,20.1522766 28.8453801,20.1674681 C28.8474854,20.1435957 28.8774269,19.8095745 28.8887719,19.6828723 C28.775731,20.9447234 28.5306433,23.5138085 26.7392982,25.7966809 C26.1580702,26.5374894 24.7969006,28.2721277 22.6135673,28.7428085 C19.8411696,29.3406383 17.0753216,27.8450426 16.7223392,27.4937234 C16.3212865,27.0886596 15.8530994,26.8074255 15.299883,26.8028298 C15.0936842,26.8011064 14.8874854,26.8027021 14.6812865,26.805 C14.5122807,26.8068511 14.3615205,26.8123404 14.195848,26.8621277 C13.8260819,26.9733191 13.5032749,27.2122979 13.2220468,27.4909787 C12.8639766,27.8416596 10.0808772,29.3364255 7.32795322,28.7428085 C5.14461988,28.2721277 3.78345029,26.5374894 3.20222222,25.7966809 C1.39345029,23.4916596 1.16111111,20.8940426 1.0494152,19.6457234 C1.03619883,19.4975106 0.991345029,19.0325745 0.987953216,18.9036383 C0.984269006,18.761234 1.06842105,18.6943404 1.11883041,18.6670851 C1.16017544,18.6448085 1.26783626,18.603383 1.37491228,18.6982979 C2.07736842,19.320766 2.85099415,19.7752979 3.67438596,20.0491915 C4.80175439,20.4241915 5.7519883,20.3671277 7.06730994,20.2881702 C8.30573099,20.2138723 9.07508772,20.0352766 9.69333333,19.8918511 C9.99912281,19.8208723 10.2561404,19.7615106 10.5126316,19.7261489 C10.5139766,19.7260213 10.5152047,19.7260851 10.5164912,19.7259574 C10.518655,19.7256383 10.5207018,19.7250638 10.522807,19.7248085 C10.8091228,19.6860638 11.095731,19.6775745 11.4496491,19.7180426 C12.1587135,19.7989787 12.8695906,20.0559574 13.5626901,20.4818298 C14.4311696,21.0155106 15.5102924,21.0154468 16.3787135,20.4818298 C17.0718129,20.0558936 17.7827485,19.7989149 18.4917544,19.7179787 C19.1667836,19.6409362 19.5970175,19.7407021 20.2481871,19.8917872 C20.8664327,20.0352766 21.635731,20.2137447 22.8742105,20.2881064 C24.1895322,20.3671277 25.1398246,20.4241915 26.2671345,20.0491277 C27.0905263,19.7751702 27.8640936,19.3207021 28.5665497,18.698234 C28.6737427,18.6032553 28.781345,18.6448085 28.8227485,18.6670213 C28.8732164,18.6942128 28.9573099,18.7611064 28.9536257,18.9036383 C28.950117,19.0326383 28.9053216,19.4975106 28.8921053,19.6457234 Z" id="Shape"></path>
                <path d="M28.8887719,20.0127869 C28.8974083,19.9167869 28.9064992,19.8157869 28.914681,19.7217869 C28.9319537,19.5257869 28.9187719,19.6762869 28.8887719,20.0127869 Z" id="Shape"></path>
                <path d="M10.8332164,17.9999362 C10.8432164,18.156934 10.84958,18.3139318 10.8632164,18.4709296 C10.8786709,18.5841868 10.8618527,18.352986 10.8332164,17.9999362 Z" id="Shape"></path>
                <path d="M9.89684211,15.366 C10.0460355,15.5366006 10.1972564,15.7038126 10.3512653,15.866 C10.3586151,15.841111 10.032772,15.5001435 9.89684211,15.366 Z" id="Shape"></path>
            </g>
            <path d="M24.5229825,23.352 L23.5754386,22.6502553 C22.4511111,21.8175319 21.0968421,21.5126809 19.7622222,21.7914255 C18.4276023,22.0703617 17.2723977,22.8999574 16.5094737,24.1272766 C16.4359064,24.245617 16.4084795,24.3909574 16.4330994,24.531383 C16.4577193,24.6718085 16.5324561,24.7958298 16.6408772,24.8760638 L17.5884795,25.5778085 C18.461462,26.2243404 19.454152,26.5340426 20.4372515,26.5339787 C22.0680702,26.5339149 23.6717544,25.6814681 24.654386,24.1007872 C24.8075439,23.8544681 24.7487135,23.519234 24.5229825,23.352 Z M18.1430994,24.6856596 L17.6285965,24.3045319 C18.2280702,23.5508298 19.0360234,23.0410851 19.9481287,22.8504894 C21.0234503,22.6258085 22.1147368,22.8714894 23.0209357,23.5424681 L23.5352632,23.9233404 C22.1938596,25.6057021 19.8753216,25.9685745 18.1430994,24.6856596 Z" id="Shape"></path>
            <path d="M13.664152,24.1272766 C12.9011696,22.9000213 11.7459064,22.0704894 10.411462,21.7914894 C9.07695906,21.5126809 7.72274854,21.8175319 6.59824561,22.6503191 L5.65070175,23.3520638 C5.42497076,23.519234 5.36614035,23.8544043 5.51929825,24.1008511 C6.28222222,25.3281064 7.43736842,26.1577021 8.7719883,26.4366383 C9.09450292,26.5040426 9.41824561,26.5373617 9.73947368,26.5373617 C10.7477193,26.5373617 11.7325731,26.2094043 12.5852047,25.5778085 L13.5327485,24.8760638 C13.758538,24.7088298 13.8173099,24.3735957 13.664152,24.1272766 Z M12.0305263,24.6856596 C10.2983041,25.9685106 7.97976608,25.6055745 6.63842105,23.9233404 L7.15280702,23.5424681 C8.05894737,22.8714255 9.15040936,22.625617 10.2255556,22.8504894 C11.1376608,23.0410851 11.9456725,23.5508298 12.5451462,24.3045319 L12.0305263,24.6856596 Z" id="Shape"></path>
        </g>
    </g>
</svg>
