
<svg width="30px" height="31px" viewBox="-622 -1172 30 31" version="1.1" xmlns="http://www.w3.org/2000/svg" xmlns:xlink="http://www.w3.org/1999/xlink">
    <!-- Generator: Sketch 42 (36781) - http://www.bohemiancoding.com/sketch -->
    <desc>Created with Sketch.</desc>
    <defs></defs>
    <g id="karaoke" stroke="none" stroke-width="1" fill="none" fill-rule="evenodd" transform="translate(-622.000000, -1172.000000)">
        <g id="Group" fill-rule="nonzero" fill="#000000">
            <ellipse id="Oval" cx="27.1780213" cy="8.07399015" rx="0.478723404" ry="0.554187192"></ellipse>
            <ellipse id="Oval" cx="27.1780213" cy="4.93899015" rx="0.478723404" ry="0.554187192"></ellipse>
            <path d="M28.4895957,11.958399 C29.466,10.6510345 29.9987872,9.00014778 29.9987872,7.25445813 C29.9987872,5.33002463 29.3514255,3.52086207 28.1759362,2.16014778 C27.0005106,0.799433498 25.4377021,0.0500246305 23.775383,0.0500246305 C22.2676596,0.0500246305 20.8418298,0.666502463 19.7126809,1.79637931 L19.5845106,1.65022167 C19.3961489,1.43541872 19.0930213,1.43800493 18.9075319,1.65605911 C18.7219787,1.87403941 18.7242128,2.22495074 18.9125745,2.43975369 L19.0377447,2.58251232 C18.0764043,3.88470443 17.5520426,5.52280788 17.5520426,7.25438424 C17.5520426,7.47731527 17.5611064,7.6985468 17.5782766,7.91785714 L4.29344681,25.1062315 C4.12404255,25.325468 4.13202128,25.6596059 4.31170213,25.8676847 L5.6657234,27.4351478 L5.39348936,27.7502956 C4.38,28.9236946 2.73076596,28.9236207 1.71714894,27.7503695 C0.703595745,26.5769704 0.703595745,24.6677586 1.71714894,23.4944335 L10.7085319,13.0856897 C12.0954255,11.4800985 12.0954255,8.86780788 10.7085319,7.26221675 C9.3216383,5.6567734 7.065,5.6567734 5.67817021,7.26221675 L0.138957447,13.6746059 L0.81593617,14.4583744 L6.35514894,8.04598522 C7.36876596,6.87273399 9.018,6.8726601 10.0314894,8.04598522 C11.0450426,9.21931034 11.0450426,11.1285222 10.0314894,12.3018473 L1.04017021,22.710665 C-0.346723404,24.3161823 -0.346723404,26.9284729 1.04017021,28.534064 C1.73361702,29.3367488 2.64446809,29.7381281 3.55531915,29.7381281 C4.46617021,29.7381281 5.37708511,29.3367488 6.07053191,28.5339901 L6.34270213,28.2188424 L7.69678723,29.7863054 C7.78997872,29.8941872 7.91253191,29.9485714 8.03534043,29.9485714 C8.1492766,29.9485714 8.26340426,29.9017241 8.35448936,29.8073645 L21.0880851,16.6182266 C21.0899362,16.6163054 23.2021277,14.4285222 23.2021277,14.4285222 C23.3916383,14.448399 23.5828085,14.4588916 23.775383,14.4588916 C25.2708511,14.4588916 26.6856383,13.8520936 27.8104468,12.7395813 L27.9361277,12.8858128 C28.0297021,12.9946552 28.1525106,13.0490394 28.275383,13.0490394 C28.3975532,13.0490394 28.5197234,12.9952463 28.6131064,12.8875862 C28.8005106,12.6716749 28.8012128,12.3207635 28.6146383,12.1038916 L28.4895957,11.958399 L28.4895957,11.958399 Z M8.05359574,28.6318227 L6.68170213,27.0437438 C6.68080851,27.0427094 5.30897872,25.4546305 5.30897872,25.4546305 L15.9024894,11.7484729 C16.3248511,12.741798 16.8831702,13.6442365 17.5694043,14.4387931 C18.255766,15.233202 19.0352553,15.879532 19.893383,16.3684729 L8.05359574,28.6318227 Z M20.6706383,15.5633498 C19.7657234,15.1112808 18.9511277,14.4707882 18.246383,13.6550246 C17.5416383,12.8391133 16.9883617,11.8961084 16.5978511,10.8486207 L17.8028298,9.28958128 C18.092234,10.4337192 18.626234,11.4822414 19.374766,12.3488424 C20.1232979,13.2153695 21.0289787,13.8334729 22.0173191,14.1684975 L20.6706383,15.5633498 L20.6706383,15.5633498 Z M23.775383,13.3505172 C22.368766,13.3504433 21.0464043,12.7163793 20.0518085,11.565 C19.0572128,10.4136207 18.5094255,8.88273399 18.5094255,7.25445813 C18.5094255,5.8164532 18.9372128,4.45492611 19.7221277,3.36317734 L20.7313404,4.51426108 C20.8245957,4.62059113 20.9459362,4.67364532 21.0672766,4.67364532 C21.1909787,4.67364532 21.314617,4.61844828 21.4083191,4.50842365 C21.5938723,4.29044335 21.5916383,3.93953202 21.4032766,3.72472906 L20.3980851,2.57815271 C21.3438511,1.65953202 22.5261064,1.15839901 23.775383,1.15839901 C25.1819362,1.15839901 26.5043617,1.79246305 27.4989574,2.94391626 C28.493617,4.09522167 29.0413404,5.62610837 29.0413404,7.25445813 C29.0413404,8.70295567 28.6069149,10.0735714 27.8110213,11.1693103 L22.760617,5.29603448 C22.5740426,5.07894089 22.2709787,5.07820197 22.0836383,5.29426108 C21.896234,5.51017241 21.8955319,5.86108374 22.0821064,6.07795567 L27.132383,11.9510837 C26.19,12.8569212 25.0155957,13.3505172 23.775383,13.3505172 L23.775383,13.3505172 Z" id="Shape"></path>
        </g>
    </g>
</svg>
