
<svg width="10px" height="10px" viewBox="320 894 10 10" version="1.1" xmlns="http://www.w3.org/2000/svg" xmlns:xlink="http://www.w3.org/1999/xlink">
    <!-- Generator: Sketch 42 (36781) - http://www.bohemiancoding.com/sketch -->
    <desc>Created with Sketch.</desc>
    <defs></defs>
    <g id="big-ruby" stroke="none" stroke-width="1" fill="none" fill-rule="evenodd" transform="translate(320.000000, 894.000000)">
        <g id="Layer_1" fill-rule="nonzero">
            <rect id="Rectangle-path" fill="#FF6464" x="2.40365196" y="1.89654297" width="5.19269608" height="6.20689453"></rect>
            <rect id="Rectangle-path" fill="#FFB1B1" x="2.40365196" y="0" width="5.19269608" height="1.89654297"></rect>
            <rect id="Rectangle-path" fill="#D2555A" x="2.40365196" y="8.10345703" width="5.19269608" height="1.89654297"></rect>
            <rect id="Rectangle-path" fill="#FFB1B1" x="7.59634804" y="1.89654297" width="2.37997549" height="6.20689453"></rect>
            <polygon id="Shape" fill="#FFD8D8" points="7.59634804 0 9.97632353 1.89654297 7.59634804 1.89654297"></polygon>
            <polygon id="Shape" fill="#FF8B8B" points="9.97632353 8.10345703 7.59634804 10 7.59634804 8.10345703"></polygon>
            <rect id="Rectangle-path" fill="#D2555A" x="0.0236764706" y="1.89654297" width="2.37997549" height="6.20689453"></rect>
            <polygon id="Shape" fill="#FF6464" points="2.40365196 10 0.0236764706 8.10345703 2.40365196 8.10345703"></polygon>
            <polygon id="Shape" fill="#FF8B8B" points="0.0236764706 1.89654297 2.40365196 0 2.40365196 1.89654297"></polygon>
            <g id="Group" transform="translate(5.637255, 1.230469)" fill="#B7FFD4">
                <path d="M2.66708333,0.709550781 C2.24303922,0.6325 1.9092402,0.366503906 1.81259804,0.02859375 C1.80531863,0.00314453125 1.76303922,0.00314453125 1.7557598,0.02859375 C1.65909314,0.366503906 1.32526961,0.6325 0.90127451,0.709550781 C0.869338235,0.715351562 0.869338235,0.749042969 0.90127451,0.75484375 C1.32531863,0.831875 1.65911765,1.09785156 1.7557598,1.43576172 C1.76303922,1.46121094 1.80531863,1.46121094 1.81259804,1.43576172 C1.90926471,1.09785156 2.24308824,0.831855469 2.66708333,0.75484375 C2.6989951,0.7490625 2.6989951,0.715351562 2.66708333,0.709550781 Z" id="Shape"></path>
                <path d="M1.45973039,1.77917969 C1.12688725,1.71046875 0.864803922,1.50166016 0.778627451,1.23642578 C0.76997549,1.20978516 0.726691176,1.20978516 0.718039216,1.23642578 C0.631838235,1.50166016 0.369779412,1.71050781 0.0369362745,1.77917969 C0.00350490196,1.78607422 0.00350490196,1.82056641 0.0369362745,1.82746094 C0.369779412,1.89615234 0.631862745,2.10498047 0.718039216,2.37021484 C0.726691176,2.39685547 0.76997549,2.39685547 0.778627451,2.37021484 C0.864852941,2.10496094 1.12688725,1.89613281 1.45973039,1.82746094 C1.49318627,1.82056641 1.49318627,1.78607422 1.45973039,1.77917969 Z" id="Shape"></path>
            </g>
        </g>
    </g>
</svg>
