
<svg width="15px" height="15px" viewBox="320 894 15 15" version="1.1" xmlns="http://www.w3.org/2000/svg" xmlns:xlink="http://www.w3.org/1999/xlink">
    <!-- Generator: Sketch 42 (36781) - http://www.bohemiancoding.com/sketch -->
    <desc>Created with Sketch.</desc>
    <defs></defs>
    <g id="big-ruby" stroke="none" stroke-width="1" fill="none" fill-rule="evenodd" transform="translate(320.000000, 894.000000)">
        <g id="Layer_1" fill-rule="nonzero">
            <rect id="Rectangle-path" fill="#FF6464" x="3.60547794" y="2.84481445" width="7.78904412" height="9.3103418"></rect>
            <rect id="Rectangle-path" fill="#FFB1B1" x="3.60547794" y="0" width="7.78904412" height="2.84481445"></rect>
            <rect id="Rectangle-path" fill="#D2555A" x="3.60547794" y="12.1551855" width="7.78904412" height="2.84481445"></rect>
            <rect id="Rectangle-path" fill="#FFB1B1" x="11.3945221" y="2.84481445" width="3.56996324" height="9.3103418"></rect>
            <polygon id="Shape" fill="#FFD8D8" points="11.3945221 0 14.9644853 2.84481445 11.3945221 2.84481445"></polygon>
            <polygon id="Shape" fill="#FF8B8B" points="14.9644853 12.1551855 11.3945221 15 11.3945221 12.1551855"></polygon>
            <rect id="Rectangle-path" fill="#D2555A" x="0.0355147059" y="2.84481445" width="3.56996324" height="9.3103418"></rect>
            <polygon id="Shape" fill="#FF6464" points="3.60547794 15 0.0355147059 12.1551855 3.60547794 12.1551855"></polygon>
            <polygon id="Shape" fill="#FF8B8B" points="0.0355147059 2.84481445 3.60547794 0 3.60547794 2.84481445"></polygon>
            <g id="Group" transform="translate(8.455882, 1.845703)" fill="#B7FFD4">
                <path d="M4.000625,1.06432617 C3.36455882,0.94875 2.86386029,0.549755859 2.71889706,0.042890625 C2.70797794,0.00471679687 2.64455882,0.00471679687 2.63363971,0.042890625 C2.48863971,0.549755859 1.98790441,0.94875 1.35191176,1.06432617 C1.30400735,1.07302734 1.30400735,1.12356445 1.35191176,1.13226562 C1.98797794,1.2478125 2.48867647,1.64677734 2.63363971,2.15364258 C2.64455882,2.19181641 2.70797794,2.19181641 2.71889706,2.15364258 C2.86389706,1.64677734 3.36463235,1.2477832 4.000625,1.13226562 C4.04849265,1.12359375 4.04849265,1.07302734 4.000625,1.06432617 Z" id="Shape"></path>
                <path d="M2.18959559,2.66876953 C1.69033088,2.56570313 1.29720588,2.25249023 1.16794118,1.85463867 C1.15496324,1.81467773 1.09003676,1.81467773 1.07705882,1.85463867 C0.947757353,2.25249023 0.554669118,2.56576172 0.0554044118,2.66876953 C0.00525735294,2.67911133 0.00525735294,2.73084961 0.0554044118,2.74119141 C0.554669118,2.84422852 0.947794118,3.1574707 1.07705882,3.55532227 C1.09003676,3.5952832 1.15496324,3.5952832 1.16794118,3.55532227 C1.29727941,3.15744141 1.69033088,2.84419922 2.18959559,2.74119141 C2.23977941,2.73084961 2.23977941,2.67911133 2.18959559,2.66876953 Z" id="Shape"></path>
            </g>
        </g>
    </g>
</svg>
