
<svg width="25px" height="30px" viewBox="-775 -1408 25 30" version="1.1" xmlns="http://www.w3.org/2000/svg" xmlns:xlink="http://www.w3.org/1999/xlink">
    <!-- Generator: Sketch 42 (36781) - http://www.bohemiancoding.com/sketch -->
    <desc>Created with Sketch.</desc>
    <defs></defs>
    <g id="soda" stroke="none" stroke-width="1" fill="none" fill-rule="evenodd" transform="translate(-774.000000, -1408.000000)">
        <g id="Group" fill-rule="nonzero" fill="#000000">
            <path d="M23.6931784,7.48812766 C23.5522656,7.3937234 23.357278,7.34042553 23.153527,7.34042553 L14.1908714,7.34042553 L14.1908714,3.35106383 C14.1908714,3.08706383 14.5258755,2.87234043 14.9377593,2.87234043 L22.406639,2.87234043 C22.8191203,2.87234043 23.153527,2.65806383 23.153527,2.39361702 L23.153527,0.478723404 C23.153527,0.214276596 22.8191203,0 22.406639,0 L14.9377593,0 C12.0548714,0 9.70954357,1.50331915 9.70954357,3.35106383 L9.70954357,7.34042553 L0.746887967,7.34042553 C0.543136929,7.34042553 0.348149378,7.39378723 0.207236515,7.48812766 C0.0663236515,7.58253191 -0.00826556017,7.70974468 0.000697095436,7.84021277 L1.05440664,23.1490213 C1.07263071,23.4132128 1.42317012,23.6178511 1.83346058,23.606234 C2.24554357,23.5945532 2.56491286,23.3709574 2.5466888,23.1068298 L1.52743568,8.29787234 L22.3728797,8.29787234 L20.945029,29.0425532 L2.95528631,29.0425532 L2.67843983,25.0201277 C2.66031535,24.7559362 2.31236515,24.5525106 1.89938589,24.5629149 C1.4873029,24.5745957 1.16793361,24.7981915 1.18615768,25.0622553 L1.49457261,29.5423404 C1.51219917,29.7982979 1.84102905,30 2.24076349,30 L21.6598506,30 C22.0595851,30 22.3884149,29.7982979 22.4060415,29.5423404 L23.8998174,7.84021277 C23.9086805,7.70974468 23.8340913,7.58259574 23.6931784,7.48812766 L23.6931784,7.48812766 Z M11.2033195,3.35106383 C11.2033195,2.03119149 12.8785394,0.957446809 14.9377593,0.957446809 L21.659751,0.957446809 L21.659751,1.91489362 L14.9377593,1.91489362 C13.7022075,1.91489362 12.6970954,2.55919149 12.6970954,3.35106383 L12.6970954,7.34042553 L11.2033195,7.34042553 L11.2033195,3.35106383 Z" id="Shape"></path>
            <ellipse id="Oval" cx="16.4026556" cy="19.4680851" rx="0.746887967" ry="0.478723404"></ellipse>
            <ellipse id="Oval" cx="7.65151867" cy="23.9361702" rx="0.746887967" ry="0.478723404"></ellipse>
            <path d="M10.4564315,9.25531915 C10.0439502,9.25531915 9.70954357,9.46959574 9.70954357,9.73404255 L9.70954357,11.6254468 C9.64919502,11.6519362 9.59043983,11.678234 9.53357676,11.703766 C9.06881328,11.9127447 8.73311203,12.063766 7.97536929,12.063766 C7.21762656,12.063766 6.88182573,11.9128085 6.41716183,11.703766 C5.88846473,11.466 5.23040664,11.1701489 4.00092946,11.1701489 C3.79717842,11.1701489 3.60219087,11.2235106 3.46127801,11.3178511 C3.32036515,11.4122553 3.24577593,11.5394681 3.25473859,11.6699362 L4.35316183,27.6274468 C4.37078838,27.8834043 4.69961826,28.0851064 5.0993527,28.0851064 L18.8010622,28.0851064 C19.2007967,28.0851064 19.5296266,27.8834043 19.5472531,27.6274468 L20.6456763,11.67 C20.654639,11.5395319 20.5800498,11.412383 20.4391369,11.3179149 C20.2982241,11.2235106 20.1032365,11.1702128 19.8994855,11.1702128 C18.6699087,11.1702128 18.0118506,11.4660638 17.4831535,11.703766 C17.01839,11.9127447 16.6824896,12.063766 15.9246473,12.063766 C15.166805,12.063766 14.8310041,11.9128085 14.3661411,11.703766 C14.3095768,11.6782979 14.2510207,11.6521277 14.190971,11.6258298 L14.190971,9.73404255 C14.190971,9.46959574 13.8565643,9.25531915 13.444083,9.25531915 C13.0316017,9.25531915 12.697195,9.46959574 12.697195,9.73404255 L12.697195,11.2117021 C12.4732282,11.1857234 12.2266556,11.1701489 11.9498091,11.1701489 C11.673361,11.1701489 11.4270871,11.1857234 11.2034191,11.2116383 L11.2034191,9.73404255 C11.2033195,9.46959574 10.8689129,9.25531915 10.4564315,9.25531915 L10.4564315,9.25531915 Z M4.7866556,12.203617 C5.07047303,12.2678298 5.29374274,12.368234 5.55913693,12.4875319 C6.08783402,12.7252979 6.74589212,13.0211489 7.97536929,13.0211489 C8.73839004,13.0211489 9.28102905,12.9071489 9.70954357,12.7638511 L9.70954357,27.1276596 L5.8139751,27.1276596 L4.7866556,12.203617 Z M15.9245477,13.0212128 C17.1541245,13.0212128 17.8121826,12.7253617 18.3409793,12.4876596 C18.6063734,12.3682979 18.8297427,12.2678936 19.1136598,12.2036809 L18.0864398,27.1276596 L14.1908714,27.1276596 L14.1908714,12.7641064 C14.6192863,12.9072766 15.1618257,13.0212128 15.9245477,13.0212128 Z M11.9497095,12.1275957 C12.2557344,12.1275957 12.4924481,12.1525532 12.6970954,12.1956383 L12.6970954,27.1276596 L11.2033195,27.1276596 L11.2033195,12.1955106 C11.4077676,12.1524894 11.6441826,12.1275957 11.9497095,12.1275957 Z" id="Shape"></path>
        </g>
    </g>
</svg>
