
<svg width="24px" height="30px" viewBox="880 572 24 30" version="1.1" xmlns="http://www.w3.org/2000/svg" xmlns:xlink="http://www.w3.org/1999/xlink">
    <!-- Generator: Sketch 42 (36781) - http://www.bohemiancoding.com/sketch -->
    <desc>Created with Sketch.</desc>
    <defs></defs>
    <g id="cheers" stroke="none" stroke-width="1" fill="none" fill-rule="evenodd" transform="translate(880.000000, 572.000000)">
        <g id="Capa_1" fill-rule="nonzero">
            <g id="Group">
                <path d="M11.3942617,7.20564969 L3.49731208,4.81243364 L3.37845302,4.95403241 C2.60633221,5.87303704 2.04302517,7.04543364 1.74958221,8.34824074 C1.00744631,11.6443056 2.18758557,14.9267207 4.41507383,16.1003704 L2.58171141,24.237466 C1.16917953,23.8797994 0.0714697987,23.8102531 0.00617449664,24.1045941 C-0.0720100671,24.4486111 1.28591611,25.1577685 3.03684899,25.6880478 C4.78994295,26.2195802 6.27209228,26.3711142 6.35027685,26.0258441 C6.41669128,25.7327562 5.4325151,25.1701651 4.04888758,24.6808349 L5.88549161,16.5337593 C8.30577852,16.7386836 10.6917584,14.5541065 11.4285688,11.2804182 C11.7220117,9.97765586 11.7262953,8.63385494 11.439297,7.3956713 L11.3942617,7.20564969 Z M7.00296075,14.3621065 C7.00296075,14.3621065 9.62457485,13.056838 9.47465035,11.8124336 L10.2007326,12.0322608 C10.2007326,12.032216 9.90837015,14.2440926 7.00296075,14.3621065 Z M5.88479129,8.33977469 C4.49904129,6.65943056 3.51590706,6.65200154 3.00296075,6.84448457 C3.19892384,6.47437654 3.4217074,6.12664506 3.66907317,5.81243364 L10.8999104,8.00318673 C11.0252141,8.61795988 11.0691302,9.25752623 11.0391453,9.90335802 C10.9887846,9.91951389 7.97416377,10.8757978 5.88479129,8.33977469 Z" id="Shape" fill="#AE2525"></path>
                <path d="M20.7445153,27.4324614 L19.1135221,19.2270278 C21.3410103,18.1055602 22.5800774,14.8877238 21.9246932,11.591659 C21.6633962,10.2789614 21.1300741,9.08669444 20.3804516,8.14531327 L20.2647955,8 L12.3110405,10.1261744 L12.2628408,10.3149429 C11.9447771,11.5444444 11.9147922,12.8869923 12.1760892,14.1984367 C12.835757,17.5181312 15.193913,19.7908272 17.6377788,19.6331173 L19.2677301,27.8286157 C17.8723325,28.2694784 16.8731445,28.7985494 16.9331143,29.0953966 C17.0005707,29.441875 18.4880841,29.3400617 20.2518677,28.8693488 C22.0178123,28.3974275 23.3907117,27.7329784 23.3221747,27.3865 C23.264366,27.0896975 22.1677754,27.1219645 20.7445153,27.4324614 Z M19.5065288,16.4202485 C19.5065288,16.4202485 21.3067419,13.8544198 20.6759784,12.832304 L21.4074247,12.6373148 C21.4074247,12.6361065 22.0317435,14.7523457 19.5065288,16.4202485 Z M15.7529751,11.7469074 C13.8531596,11.0029769 12.979314,11.5258272 12.6023224,11.9717022 C12.6269432,11.5382685 12.685871,11.1123086 12.7801093,10.6999537 L20.0623492,8.75261265 C20.418965,9.22950154 20.7145304,9.77222222 20.9458425,10.3621574 C20.9072905,10.4006451 18.6176714,12.8695833 15.7529751,11.7469074 Z" id="Shape" fill="#AE2525"></path>
                <ellipse id="Oval" fill="#010002" cx="15.7999832" cy="7.92773148" rx="0.799983221" ry="0.927731481"></ellipse>
                <ellipse id="Oval" fill="#010002" cx="17.6950168" cy="3.80600309" rx="0.695016779" ry="0.806003086"></ellipse>
                <ellipse id="Oval" fill="#010002" cx="16.4048154" cy="0.469459877" rx="0.404815436" ry="0.469459877"></ellipse>
                <ellipse id="Oval" fill="#010002" cx="15.2666611" cy="0.309243827" rx="0.266661074" ry="0.309243827"></ellipse>
                <ellipse id="Oval" fill="#010002" cx="9.76463423" cy="0.886737654" rx="0.764634228" ry="0.886737654"></ellipse>
                <path d="M3.95959396,1.96703764 C4.08061409,2.03909011 4.18662248,2.10116264 4.30548154,2.16574134 C4.4243406,2.22906696 4.54644128,2.3247043 4.64280201,2.45757622 C4.74024329,2.58798671 4.82591443,2.7444435 4.89981544,2.9133864 C4.97691946,3.08103146 5.04225336,3.26483239 5.09473658,3.45485399 C5.21147315,3.83364412 5.27892953,4.24349288 5.32496812,4.65826449 L5.40955872,4.66573825 C5.49951342,4.24474597 5.52413423,3.81131233 5.51236409,3.36543733 C5.48986577,2.9220685 5.41384228,2.46129072 5.20931208,2.02414258 C5.10758725,1.80802992 4.98440604,1.58448825 4.81842785,1.39446665 C4.65028859,1.20444504 4.42966611,1.07157313 4.20263758,1.0268648 C3.7475,0.934941958 3.31161913,1.08150832 3,1.42677838 L3.01605369,1.52366881 C3.41126007,1.71122899 3.72075671,1.81800986 3.95959396,1.96703764 Z" id="Shape" fill="#010002"></path>
                <path d="M5.48188087,1.60839686 C5.52687752,1.65561137 5.56755201,1.7176839 5.59325336,1.7909447 C5.62003523,1.86545859 5.63825,1.94744625 5.64785906,2.03310365 C5.66070973,2.11880581 5.66607383,2.2106839 5.66607383,2.30135365 C5.66819631,2.48640766 5.64677852,2.67642927 5.61575168,2.86519779 L5.65110067,2.88260674 C5.74321644,2.71370859 5.8074698,2.52990766 5.85779195,2.33241229 C5.90491107,2.13617001 5.9274094,1.9213552 5.8920604,1.69776878 C5.87492617,1.58597557 5.85030537,1.46925952 5.80102517,1.35746631 C5.75174497,1.24692618 5.67143792,1.15128884 5.5782802,1.0941839 C5.39088423,0.978676183 5.18311242,0.968740998 5.00320302,1.06809285 L5,1.1115481 C5.14884396,1.25932279 5.26986409,1.35746631 5.35661577,1.46299408 C5.39941275,1.51526569 5.43796477,1.55997402 5.48188087,1.60839686 Z" id="Shape" fill="#010002"></path>
            </g>
        </g>
    </g>
</svg>
